<?xml version="1.0" standalone="no"?>
<!DOCTYPE svg PUBLIC "-//W3C//DTD SVG 20010904//EN"
 "http://www.w3.org/TR/2001/REC-SVG-20010904/DTD/svg10.dtd">
<svg version="1.0" xmlns="http://www.w3.org/2000/svg"
 width="1280.000000pt" height="1280.000000pt" viewBox="0 0 1280.000000 1280.000000"
 preserveAspectRatio="xMidYMid meet">

<g transform="translate(0.000000,1280.000000) scale(0.100000,-0.100000)"
fill="#000000" stroke="none">
<path d="M6090 10599 c-232 -20 -626 -92 -838 -154 -450 -131 -913 -362 -1287
-643 -104 -78 -224 -175 -261 -210 -12 -11 -49 -45 -82 -75 -74 -66 -272 -276
-272 -288 0 -5 -18 -25 -40 -45 -22 -20 -70 -78 -107 -128 -37 -50 -69 -93
-73 -96 -11 -9 -148 -205 -170 -245 -27 -49 -3 -31 36 27 16 23 36 50 44 59 8
10 35 45 60 79 25 34 83 105 129 158 108 124 483 495 537 532 45 30 92 70 133
110 15 14 39 32 54 40 16 8 40 25 54 37 13 13 29 20 35 17 6 -4 13 -2 17 3 3
6 26 21 51 34 25 14 65 38 90 54 140 90 185 117 255 155 17 8 37 20 45 25 8 5
18 10 21 10 3 0 21 7 40 17 19 9 50 23 69 31 19 8 66 30 104 47 222 104 489
192 716 236 102 19 217 42 256 50 73 14 226 30 387 41 77 5 503 -11 597 -22
37 -5 331 -53 365 -60 123 -25 208 -46 247 -59 26 -9 50 -16 55 -14 11 2 123
-30 145 -42 10 -6 27 -10 38 -10 11 0 28 -4 38 -9 9 -4 37 -15 62 -24 182 -63
495 -206 670 -305 59 -33 154 -91 165 -99 6 -5 30 -20 55 -35 36 -21 122 -82
205 -145 6 -4 33 -23 60 -42 28 -19 64 -49 81 -67 17 -17 73 -67 125 -110 118
-98 168 -145 283 -263 134 -139 156 -162 156 -167 0 -4 18 -25 97 -113 18 -20
33 -39 33 -43 0 -4 10 -17 23 -30 35 -36 65 -79 230 -323 98 -145 137 -211
137 -232 0 -6 4 -13 8 -15 7 -2 78 -141 96 -188 3 -8 15 -29 25 -46 10 -17 22
-45 26 -62 3 -18 11 -32 16 -32 5 0 9 -6 9 -14 0 -7 13 -42 29 -77 59 -131
171 -486 178 -565 3 -35 10 -67 14 -70 5 -3 9 -16 9 -30 0 -13 4 -32 9 -42 10
-16 61 -305 66 -367 1 -16 7 -68 13 -115 20 -143 29 -407 21 -560 -4 -80 -11
-197 -14 -260 -7 -138 -20 -239 -44 -340 -10 -41 -24 -102 -31 -135 -32 -157
-122 -447 -175 -565 -18 -41 -56 -124 -83 -185 -51 -113 -51 -125 -6 -125 29
0 48 24 89 115 20 44 42 94 50 110 8 17 44 107 80 200 107 274 176 540 227
870 21 139 23 181 23 555 -1 364 -3 422 -23 570 -68 494 -208 935 -452 1419
-231 461 -549 862 -1000 1262 -370 327 -863 619 -1340 791 -318 115 -578 177
-933 224 -144 19 -599 27 -757 13z"/>
<path d="M7200 9609 c-93 -88 -217 -175 -295 -209 -106 -45 -165 -53 -375 -45
-230 8 -305 -1 -407 -50 -112 -52 -198 -152 -229 -267 -22 -82 -19 -258 4
-258 4 0 24 34 45 75 27 51 58 92 100 131 125 116 242 144 508 123 232 -19
346 2 487 89 120 73 195 161 230 268 21 64 40 224 26 224 -5 -1 -47 -37 -94
-81z"/>
<path d="M7458 9070 c-33 -42 -176 -162 -261 -219 -65 -44 -164 -88 -256 -114
-70 -19 -105 -21 -420 -23 -194 -2 -348 -7 -353 -12 -11 -11 71 -96 148 -152
153 -114 347 -155 538 -115 86 18 212 79 296 143 69 52 163 155 215 237 37 58
145 270 145 285 0 21 -20 9 -52 -30z"/>
<path d="M2352 8260 c-29 -61 -52 -116 -52 -121 0 -5 -8 -26 -19 -47 -34 -67
-129 -366 -175 -549 -106 -425 -146 -743 -147 -1169 0 -336 29 -627 97 -974
109 -550 366 -1174 677 -1640 287 -429 605 -769 1022 -1091 505 -390 1181
-694 1845 -829 300 -61 450 -74 830 -75 326 0 454 7 605 35 28 5 74 12 103 15
29 4 51 9 48 12 -2 3 -53 -2 -113 -11 -188 -27 -312 -36 -528 -40 -503 -10
-904 46 -1378 191 -82 25 -170 53 -195 63 -26 10 -85 33 -132 51 -119 45 -132
51 -345 154 -439 212 -828 488 -1165 825 -78 79 -145 151 -285 306 -46 51
-236 312 -317 435 -111 168 -265 455 -341 634 -14 33 -40 93 -57 134 -113 264
-242 711 -285 991 -93 592 -97 1014 -15 1552 54 356 206 878 341 1167 22 46
38 86 36 88 -2 2 -27 -47 -55 -107z"/>
<path d="M4537 8259 c-33 -25 -57 -68 -57 -103 0 -31 234 -919 418 -1586 39
-140 87 -320 107 -400 74 -294 121 -398 245 -532 150 -165 313 -246 538 -268
215 -22 407 35 567 166 56 45 160 173 197 241 60 113 68 162 68 437 0 138 3
261 6 274 l6 22 262 0 261 0 -3 -560 -2 -560 115 0 115 0 2 313 c4 696 2 664
55 735 51 68 43 66 408 72 381 6 365 2 472 104 117 110 121 118 188 406 40
169 180 744 219 900 59 230 60 242 37 288 -40 79 156 72 -2143 72 l-2053 -1
-28 -20z m293 -211 c0 -17 79 -390 125 -593 47 -209 54 -255 37 -255 -26 0
-44 42 -87 205 -46 173 -145 561 -159 618 -6 26 -5 27 39 27 25 0 45 -1 45 -2z
m649 -215 c19 -120 48 -308 66 -418 18 -110 31 -203 28 -207 -5 -9 -353 -11
-353 -2 0 12 -121 606 -145 711 -14 61 -25 117 -25 122 0 8 65 11 198 11 l198
0 33 -217z m916 -208 l0 -420 -297 -3 c-276 -2 -297 -1 -302 15 -3 10 -31 194
-61 408 -31 215 -58 398 -61 408 -5 16 15 17 358 15 l363 -3 0 -420z m1525
411 c0 -8 -16 -97 -36 -198 -19 -101 -53 -280 -75 -398 -22 -118 -45 -220 -51
-227 -8 -10 -132 -13 -574 -13 l-564 0 0 425 0 425 650 0 c561 0 650 -2 650
-14z m610 6 c0 -7 -24 -112 -140 -617 -23 -99 -44 -190 -46 -202 -4 -23 -7
-23 -159 -25 -85 -1 -165 -2 -177 -2 -28 -1 -28 15 7 194 14 69 45 238 70 375
25 138 48 258 51 268 5 15 23 17 200 17 107 0 194 -4 194 -8z m-2130 -1177 l0
-115 -660 0 -660 0 -10 23 c-11 25 -50 179 -50 196 0 8 201 11 690 11 l690 0
0 -115z m1886 78 c-10 -52 -50 -134 -82 -164 l-26 -24 -779 -3 -779 -2 0 115
0 115 836 0 836 0 -6 -37z m-2103 -462 c56 -29 136 -110 166 -169 74 -145 65
-322 -22 -461 -52 -82 -153 -178 -222 -211 -82 -39 -133 -49 -245 -50 -176 0
-287 46 -416 175 -99 98 -144 176 -189 329 -33 114 -95 374 -95 402 0 13 65
14 488 12 l487 -3 48 -24z"/>
<path d="M4660 4941 c-19 -4 -49 -15 -67 -24 -61 -32 -63 -41 -63 -259 l0
-198 40 0 40 0 0 90 0 90 80 0 c76 0 80 1 86 24 10 40 -2 46 -88 46 l-81 0 6
70 c3 39 9 75 12 80 3 6 39 10 80 10 40 0 80 3 89 6 17 6 22 49 8 58 -16 10
-108 14 -142 7z"/>
<path d="M5746 4927 c-3 -12 -3 -51 -1 -86 5 -57 3 -62 -13 -56 -104 43 -196
-23 -209 -150 -8 -77 15 -135 66 -163 47 -27 69 -27 117 -4 28 13 38 14 41 5
3 -8 21 -13 44 -13 l39 0 0 245 0 245 -39 0 c-32 0 -40 -4 -45 -23z m-22 -208
c24 -19 26 -27 26 -89 0 -62 -2 -70 -26 -89 -36 -28 -88 -28 -108 1 -19 26
-21 109 -5 141 32 61 67 72 113 36z"/>
<path d="M6235 4939 c-14 -21 -165 -455 -165 -471 0 -4 20 -8 45 -8 44 0 44 1
55 43 26 100 31 107 71 107 20 0 63 -3 97 -6 57 -6 60 -8 66 -37 4 -17 11 -48
17 -69 9 -37 11 -38 54 -38 25 0 45 3 45 8 -1 16 -60 204 -107 337 l-50 140
-62 0 c-35 0 -64 -3 -66 -6z m90 -126 c9 -32 23 -75 31 -96 22 -59 21 -61 -52
-54 -37 4 -69 9 -71 11 -11 11 58 196 73 196 2 0 11 -26 19 -57z"/>
<path d="M7007 4943 c-4 -3 -7 -42 -7 -86 0 -72 -2 -78 -17 -71 -10 5 -44 9
-77 9 -57 0 -59 -1 -102 -48 -42 -47 -44 -52 -44 -110 1 -140 82 -216 185
-173 35 15 40 15 48 1 6 -12 17 -14 40 -9 18 3 35 12 39 18 4 6 8 116 8 244
l0 232 -33 0 c-19 0 -37 -3 -40 -7z m-27 -225 c16 -17 20 -35 20 -85 0 -56 -3
-67 -26 -88 -38 -36 -62 -40 -93 -18 -47 35 -57 65 -43 120 7 26 23 58 34 71
28 29 80 30 108 0z"/>
<path d="M7646 4928 c-3 -13 -6 -51 -6 -86 l0 -62 -27 7 c-100 28 -203 -49
-203 -152 0 -131 96 -219 187 -170 30 16 35 17 46 3 8 -11 23 -14 50 -11 l37
5 0 72 c0 39 -3 149 -7 244 l-6 172 -32 0 c-25 0 -34 -5 -39 -22z m-32 -201
c19 -14 35 -72 36 -129 0 -29 -6 -41 -29 -57 -45 -32 -87 -28 -111 12 -57 93
25 231 104 174z"/>
<path d="M7750 4894 l0 -46 33 7 c42 10 47 13 47 35 0 37 -12 50 -46 50 -34 0
-34 0 -34 -46z"/>
<path d="M4894 4781 c-127 -59 -138 -242 -19 -308 92 -52 196 -18 247 81 25
48 20 135 -10 175 -50 68 -140 89 -218 52z m135 -60 c28 -28 41 -84 30 -126
-27 -95 -162 -103 -185 -10 -24 97 92 199 155 136z"/>
<path d="M5254 4786 c-73 -32 -116 -126 -94 -207 54 -200 340 -150 340 59 0
117 -133 197 -246 148z m128 -66 c14 -10 31 -39 38 -64 21 -77 -23 -136 -103
-136 -45 0 -75 24 -83 66 -20 107 75 192 148 134z"/>
<path d="M6680 4793 c-8 -3 -25 -10 -38 -16 -18 -8 -25 -8 -31 2 -5 7 -21 11
-37 9 l-29 -3 0 -165 0 -165 35 0 35 0 5 123 c4 109 7 125 25 138 11 8 29 12
40 9 68 -18 65 -19 65 11 0 16 -4 34 -8 40 -9 13 -42 22 -62 17z"/>
<path d="M7200 4778 c-25 -13 -55 -39 -68 -58 -21 -31 -23 -44 -19 -103 5 -73
20 -103 71 -141 39 -30 161 -30 182 -2 27 37 18 47 -35 40 -60 -8 -114 8 -131
40 -22 41 -11 47 90 52 51 2 98 8 104 14 15 15 -11 114 -38 139 -20 19 -74 41
-101 41 -6 0 -31 -10 -55 -22z m105 -69 c35 -42 22 -52 -54 -43 -68 7 -77 20
-35 53 37 29 58 26 89 -10z"/>
<path d="M8441 4791 c-8 -5 -44 -7 -80 -5 -55 4 -72 2 -98 -15 -41 -26 -63
-70 -69 -135 -6 -63 15 -110 66 -144 30 -20 44 -23 93 -19 l57 5 0 -28 c0 -16
-11 -41 -24 -57 -20 -22 -32 -28 -65 -27 -23 1 -49 8 -59 16 -30 26 -40 28
-56 12 -25 -25 -19 -42 22 -63 82 -42 176 -35 223 15 21 22 24 39 30 152 9
149 1 302 -15 302 -6 0 -17 -4 -25 -9z m-49 -78 c13 -12 18 -31 18 -75 0 -49
-4 -63 -25 -83 -45 -46 -101 -27 -111 37 -16 97 59 174 118 121z"/>
<path d="M7772 4782 c-9 -7 -12 -47 -10 -168 l3 -159 35 4 c19 1 38 8 42 15 4
6 8 75 8 153 0 131 -2 143 -19 153 -23 12 -41 13 -59 2z"/>
<path d="M7887 4783 c-4 -3 -7 -77 -7 -164 0 -148 1 -157 20 -162 11 -3 29 -3
39 0 17 4 20 16 23 113 2 88 6 112 22 128 22 25 74 38 89 23 6 -6 13 -68 16
-138 l6 -128 33 -2 32 -1 0 116 c0 132 -11 185 -43 207 -30 21 -105 20 -130
-2 -18 -17 -19 -17 -28 0 -10 17 -59 24 -72 10z"/>
<path d="M2880 4087 c0 -11 194 -282 296 -413 245 -316 516 -577 884 -852 167
-125 488 -302 780 -429 313 -137 727 -247 1125 -300 165 -22 711 -25 880 -5
438 53 812 150 1174 307 677 292 1309 796 1742 1391 96 131 194 282 188 288
-7 7 -7069 19 -7069 13z m3473 -592 l2 -170 -54 -7 c-68 -10 -102 5 -118 52
-22 64 -16 108 17 142 27 27 36 30 70 25 l40 -5 0 70 c0 64 1 69 21 66 19 -3
20 -10 22 -173z m107 0 c0 -168 -1 -175 -20 -175 -19 0 -20 7 -20 168 0 93 3
172 7 175 3 4 12 7 20 7 10 0 13 -36 13 -175z m-1591 156 c11 -7 12 -13 3 -24
-8 -10 -27 -12 -67 -9 l-55 4 0 -34 0 -35 56 5 c44 4 56 2 52 -9 -2 -7 -23
-14 -48 -16 -45 -3 -60 -14 -60 -45 0 -15 9 -18 55 -18 47 0 55 -3 55 -19 0
-19 -34 -31 -86 -31 -22 0 -24 -4 -24 -49 0 -36 -4 -50 -17 -55 -9 -4 -20 -1
-25 6 -10 15 -4 310 6 327 9 13 135 15 155 2z m697 -16 c3 -14 5 -88 2 -165
-4 -151 -11 -175 -48 -152 -15 9 -26 10 -40 2 -32 -17 -57 -11 -84 21 -32 37
-34 86 -7 146 21 46 46 58 97 48 l34 -6 0 59 c0 32 3 62 7 65 14 15 33 6 39
-18z m992 -147 c-3 -146 -5 -173 -18 -173 -13 0 -15 27 -18 173 -2 168 -2 172
18 172 20 0 20 -4 18 -172z m-633 148 c99 -42 91 -252 -11 -301 -17 -8 -57
-15 -87 -15 l-55 0 -7 61 c-4 34 -4 108 0 165 l7 104 59 0 c33 0 75 -6 94 -14z
m1691 -3 c3 -10 17 -46 30 -79 29 -72 53 -166 53 -209 l0 -30 -19 24 c-11 13
-20 30 -20 37 0 19 -41 34 -89 34 -34 0 -39 -3 -47 -31 -9 -32 -38 -59 -50
-47 -6 7 11 69 61 213 16 44 30 86 31 93 5 18 44 14 50 -5z m-2559 -98 c29 -8
63 -64 63 -104 0 -62 -52 -121 -107 -121 -57 0 -113 78 -98 137 9 37 43 83 69
93 21 8 29 8 73 -5z m251 -18 c33 -31 48 -88 32 -127 -18 -42 -65 -80 -102
-80 -37 0 -87 50 -89 89 -3 80 10 113 55 135 36 18 72 12 104 -17z m2462 18
c0 -18 4 -18 45 -4 43 16 77 6 98 -30 38 -65 5 -193 -53 -206 -16 -3 -38 -2
-49 4 -29 16 -30 16 -24 -48 5 -52 3 -60 -14 -70 -11 -5 -23 -7 -27 -4 -3 3
-6 89 -6 190 0 156 2 183 15 183 8 0 15 -7 15 -15z m-1632 -7 c7 -7 12 -20 12
-30 0 -16 -3 -17 -22 -7 -18 10 -24 8 -40 -11 -26 -32 -22 -39 17 -33 31 5 35
3 35 -16 0 -17 -6 -21 -33 -21 -38 0 -51 -8 -38 -24 5 -6 11 -15 13 -21 1 -5
16 -9 31 -8 21 1 27 -3 25 -15 -5 -24 -80 -29 -102 -7 -31 31 -13 138 31 187
19 21 53 24 71 6z m614 -5 c21 -19 25 -82 6 -101 -7 -7 -34 -12 -61 -12 -34 0
-47 -4 -45 -12 5 -15 42 -35 80 -43 36 -7 26 -35 -12 -35 -45 0 -87 19 -99 46
-6 14 -11 50 -11 80 0 51 2 56 33 74 39 24 84 26 109 3z m97 -38 c12 -31 21
-63 21 -72 0 -28 14 -4 36 60 18 53 24 62 45 62 33 0 29 -20 -20 -128 -54
-117 -66 -116 -108 6 -38 109 -40 127 -14 127 15 0 25 -15 40 -55z m296 30 c0
-17 -6 -20 -42 -18 l-43 2 0 -85 c0 -68 -3 -86 -16 -91 -25 -9 -31 12 -33 108
-2 85 -1 90 21 99 13 5 43 8 68 7 38 -2 45 -5 45 -22z m76 -7 c7 -18 18 -49
25 -68 l11 -35 12 45 c17 60 37 90 62 90 16 0 19 -4 14 -17 -4 -10 -18 -49
-32 -88 -39 -108 -92 -219 -110 -232 -22 -17 -43 -16 -43 0 0 7 14 34 30 60
17 26 30 56 30 66 0 10 -11 54 -25 97 -30 95 -31 114 -6 114 12 0 24 -12 32
-32z m782 20 c4 -10 7 -10 18 0 20 18 83 15 102 -6 61 -68 28 -213 -51 -220
-19 -2 -40 2 -47 8 -12 10 -15 0 -17 -57 -3 -62 -5 -68 -25 -71 l-23 -3 0 164
c0 91 -3 172 -6 181 -5 12 0 16 19 16 14 0 27 -6 30 -12z m219 2 c2 -6 16 -6
41 1 21 5 47 7 57 4 29 -9 50 -57 50 -112 0 -86 -56 -142 -116 -114 l-24 11 0
-66 c0 -62 -1 -65 -22 -62 -23 3 -23 4 -23 175 0 155 2 173 17 173 9 0 18 -4
20 -10z"/>
<path d="M6230 3479 c-20 -37 -15 -101 10 -121 36 -30 57 -23 63 20 3 20 4 48
3 62 -2 14 -4 33 -5 43 -2 26 -57 23 -71 -4z"/>
<path d="M5430 3475 c-25 -65 -4 -130 40 -123 32 4 51 43 48 98 -3 44 -4 45
-41 48 -32 3 -38 0 -47 -23z"/>
<path d="M5817 3603 c-4 -3 -7 -60 -7 -125 0 -116 0 -118 23 -118 35 0 87 38
103 75 38 93 4 175 -74 175 -21 0 -42 -3 -45 -7z"/>
<path d="M7585 3555 c-4 -11 -13 -37 -21 -59 -8 -21 -13 -41 -10 -43 9 -9 76
-15 76 -6 0 4 -9 35 -19 68 -15 47 -21 56 -26 40z"/>
<path d="M4974 3465 c-18 -44 -18 -65 2 -93 20 -29 39 -28 69 3 46 45 24 125
-34 125 -16 0 -26 -10 -37 -35z"/>
<path d="M5200 3481 c-28 -53 4 -141 47 -127 36 12 55 84 33 127 -7 12 -21 19
-40 19 -19 0 -33 -7 -40 -19z"/>
<path d="M7792 3480 c-4 -11 -5 -46 -2 -77 l5 -58 35 0 c33 0 36 2 47 48 17
70 2 107 -43 107 -25 0 -37 -5 -42 -20z"/>
<path d="M6672 3484 c-32 -22 -27 -34 12 -34 65 0 85 18 41 38 -32 15 -26 15
-53 -4z"/>
<path d="M8022 3488 c-7 -7 -12 -39 -12 -74 0 -54 3 -64 20 -69 55 -17 101 76
66 130 -18 27 -54 33 -74 13z"/>
<path d="M8240 3481 c-16 -31 -13 -116 5 -131 32 -26 85 26 85 83 0 56 -67 91
-90 48z"/>
<path d="M800 4011 c0 -6 -11 -11 -25 -11 -31 0 -32 -14 -3 -34 18 -13 25 -13
34 -3 18 17 21 49 7 54 -7 3 -13 0 -13 -6z"/>
<path d="M801 3883 c-1 -24 4 -43 9 -43 12 0 12 24 0 60 -7 21 -8 19 -9 -17z"/>
<path d="M904 3910 c17 -6 36 -5 45 0 11 7 3 9 -29 9 -42 -1 -43 -1 -16 -9z"/>
<path d="M830 3770 c0 -5 5 -10 10 -10 6 0 10 5 10 10 0 6 -4 10 -10 10 -5 0
-10 -4 -10 -10z"/>
<path d="M1040 3720 c0 -29 4 -40 15 -40 11 0 15 11 15 40 0 29 -4 40 -15 40
-11 0 -15 -11 -15 -40z"/>
<path d="M2000 3714 c0 -8 5 -12 10 -9 6 4 8 11 5 16 -9 14 -15 11 -15 -7z"/>
<path d="M880 3690 c0 -5 -11 -10 -25 -10 -23 0 -25 -3 -25 -50 0 -42 4 -52
25 -66 14 -9 25 -23 25 -30 0 -10 13 -14 40 -14 l40 0 0 50 c0 41 -3 50 -17
50 -16 1 -16 2 1 15 25 19 14 29 -29 28 -19 -1 -35 3 -35 8 0 5 7 9 16 9 8 0
12 5 9 10 -3 6 -10 10 -16 10 -5 0 -9 -4 -9 -10z m25 -60 c3 -5 -1 -10 -9 -10
-9 0 -16 5 -16 10 0 6 4 10 9 10 6 0 13 -4 16 -10z"/>
<path d="M2036 3664 c-3 -9 -6 -17 -6 -18 0 -1 13 -12 30 -24 25 -19 28 -20
23 -5 -4 10 -14 28 -24 40 -14 19 -18 21 -23 7z"/>
<path d="M1440 3630 c0 -18 4 -29 10 -25 6 3 10 15 10 25 0 10 -4 22 -10 25
-6 4 -10 -7 -10 -25z"/>
<path d="M1380 3560 c0 -36 -2 -40 -25 -40 -29 0 -34 -29 -10 -54 8 -8 15 -24
15 -35 0 -24 18 -28 26 -6 4 8 12 15 20 15 11 0 14 18 14 80 0 73 -2 80 -20
80 -17 0 -20 -7 -20 -40z"/>
<path d="M1440 3535 c0 -9 9 -15 21 -15 18 0 19 2 9 15 -7 8 -16 15 -21 15 -5
0 -9 -7 -9 -15z"/>
<path d="M1520 3511 c0 -5 9 -7 20 -4 11 3 20 7 20 9 0 2 -9 4 -20 4 -11 0
-20 -4 -20 -9z"/>
<path d="M2110 3511 c0 -5 7 -14 15 -21 8 -7 15 -25 15 -41 0 -15 5 -31 10
-34 6 -3 10 1 10 9 0 9 7 16 15 16 22 0 18 11 -15 48 -29 31 -50 41 -50 23z"/>
<path d="M1086 3503 c5 -5 12 -12 16 -18 4 -6 8 -2 8 8 0 9 -7 17 -17 17 -9 0
-12 -3 -7 -7z"/>
<path d="M1520 3449 c0 -5 5 -9 10 -9 16 0 12 -70 -5 -87 -12 -12 -19 -13 -30
-3 -12 10 -15 9 -15 -5 0 -15 -2 -15 -16 -4 -9 7 -20 23 -25 36 -7 18 -16 23
-46 23 -31 0 -34 -2 -22 -12 12 -10 15 -26 11 -60 -2 -27 -8 -48 -13 -48 -18
0 -8 -25 17 -45 26 -21 27 -22 8 -43 -22 -26 -34 -28 -34 -7 0 8 -7 15 -15 15
-11 0 -15 -11 -15 -40 0 -22 -4 -40 -10 -40 -5 0 -10 17 -10 38 0 28 -4 39
-15 39 -11 0 -15 -11 -15 -39 0 -36 -2 -38 -30 -38 -28 0 -30 2 -30 40 0 22
-4 40 -10 40 -5 0 -10 11 -10 25 0 23 -4 25 -40 25 l-40 0 0 55 0 55 -41 0
c-29 0 -50 -7 -71 -25 -31 -26 -48 -32 -48 -15 0 6 -18 10 -40 10 -22 0 -40
-4 -40 -10 0 -5 18 -10 40 -10 29 0 40 -4 40 -15 0 -11 11 -15 40 -15 l40 0 0
-40 c0 -38 -2 -40 -30 -40 -34 0 -40 -15 -10 -25 13 -4 20 -15 20 -31 0 -17 6
-24 20 -24 10 0 32 -12 47 -27 l28 -28 3 43 c3 42 3 42 43 42 l39 0 0 -55 c0
-52 -1 -55 -25 -55 -14 0 -25 -4 -25 -10 0 -5 11 -17 25 -26 14 -9 25 -23 25
-30 0 -9 11 -14 30 -14 28 0 30 -2 30 -40 0 -38 -2 -40 -30 -40 -16 0 -30 5
-30 10 0 6 -18 10 -40 10 -22 0 -40 -4 -40 -10 0 -5 11 -10 24 -10 14 0 28 -4
31 -10 3 -5 24 -10 46 -10 21 0 39 5 39 10 0 6 5 10 10 10 6 0 10 -7 10 -15 0
-8 -4 -15 -10 -15 -5 0 -10 -11 -10 -25 0 -29 6 -31 26 -10 9 8 29 15 45 15
19 0 29 -5 29 -15 0 -8 5 -15 10 -15 6 0 10 18 10 40 0 40 0 40 -37 40 -21 0
-45 5 -53 10 -10 6 -11 10 -2 10 7 0 12 13 12 30 0 17 -4 30 -10 30 -5 0 -10
20 -10 45 0 41 2 45 23 41 12 -3 30 -5 39 -5 12 -1 18 -12 21 -38 2 -21 2 -3
-1 40 -3 52 -1 77 7 77 6 0 11 -17 11 -39 0 -34 3 -38 23 -37 20 1 23 -5 31
-81 8 -78 10 -83 32 -83 21 0 24 -5 24 -40 0 -22 4 -40 9 -40 6 0 12 -19 14
-42 l4 -43 1 43 c2 31 6 42 18 42 14 0 16 -7 11 -40 l-5 -40 44 0 44 0 0 -80
0 -80 -55 0 -55 0 0 -40 c0 -29 4 -40 15 -40 11 0 15 -11 15 -38 0 -31 5 -41
25 -52 19 -10 25 -21 25 -47 0 -23 5 -33 15 -33 9 0 20 -11 25 -25 5 -14 16
-25 25 -25 8 0 15 -4 15 -10 0 -5 15 -10 34 -10 19 0 37 -6 39 -12 3 -7 6 4 6
25 1 38 21 44 21 6 0 -14 7 -19 30 -19 28 0 30 -2 30 -40 0 -38 2 -40 30 -40
28 0 30 -2 30 -40 0 -22 5 -40 10 -40 6 0 10 6 10 13 0 8 4 7 10 -3 13 -20 13
-90 0 -90 -5 0 -10 -8 -10 -17 1 -17 2 -17 15 1 15 20 35 14 35 -10 0 -8 4
-13 9 -10 5 3 14 0 20 -8 7 -8 28 -17 49 -21 31 -6 34 -9 17 -15 -17 -7 -17
-9 -2 -9 9 -1 17 -5 17 -10 0 -5 7 -8 16 -7 9 0 19 -5 21 -11 6 -16 -27 -30
-36 -15 -4 7 -12 8 -21 2 -13 -8 -12 -10 3 -10 9 0 17 -5 17 -11 0 -6 16 -10
38 -8 75 4 75 4 70 -50 -6 -61 5 -85 33 -71 16 9 19 7 19 -13 0 -18 8 -28 30
-37 36 -15 39 -42 8 -58 -22 -10 -21 -11 10 -11 17 -1 32 -5 32 -11 0 -5 18
-10 40 -10 36 0 40 -2 40 -26 0 -14 6 -31 13 -38 17 -18 67 -29 67 -15 0 15
-23 36 -46 42 -12 3 -7 5 14 6 22 1 32 -4 32 -14 0 -10 10 -15 30 -15 28 0 30
-3 30 -36 0 -45 19 -64 64 -64 25 0 36 -4 36 -15 0 -11 11 -15 40 -15 l40 0 0
-40 c0 -38 2 -40 30 -40 29 0 30 0 23 -45 -5 -38 -3 -45 11 -45 11 0 16 9 16
30 0 17 5 30 10 30 6 0 10 7 10 15 0 10 10 15 30 15 20 0 30 -5 30 -15 0 -10
-10 -15 -30 -15 -27 0 -30 -3 -30 -30 0 -23 5 -30 18 -30 11 0 24 -10 30 -23
6 -12 11 -16 11 -9 1 14 41 17 41 2 0 -5 -4 -10 -10 -10 -5 0 -10 -7 -10 -15
0 -10 10 -15 30 -15 17 0 33 -7 39 -17 8 -15 14 -16 40 -6 17 6 31 7 31 2 0
-5 10 -9 23 -9 13 0 29 -6 35 -12 10 -10 15 -10 21 1 6 9 20 12 41 9 28 -4 30
-3 17 7 -23 16 -21 25 3 25 11 0 20 7 20 15 0 11 11 15 40 15 33 0 40 -3 40
-20 0 -17 -7 -20 -40 -20 -33 0 -40 -3 -40 -20 0 -17 7 -20 40 -20 38 0 40 -2
40 -30 0 -25 4 -30 25 -30 23 0 25 4 25 40 0 36 3 40 24 40 24 0 86 -49 86
-69 0 -6 4 -11 10 -11 5 0 21 -12 35 -26 26 -25 29 -26 126 -22 90 3 99 2 99
-14 0 -15 9 -18 65 -18 63 0 65 1 65 25 0 22 -4 25 -36 25 -23 0 -42 6 -50 18
-17 22 -18 89 -1 96 6 3 2 3 -11 0 -14 -3 -29 1 -40 12 -16 16 -17 16 -20 1
-3 -12 -14 -17 -39 -17 -35 0 -36 0 -18 20 9 10 33 24 52 31 27 8 33 15 28 30
-9 27 3 24 35 -11 33 -35 50 -38 50 -10 0 15 -7 20 -25 20 -22 0 -25 4 -25 40
0 22 5 40 10 40 6 0 10 7 10 15 0 12 16 15 80 15 64 0 80 -3 80 -15 0 -12 18
-15 98 -15 l97 0 -1 30 c-2 47 -3 48 -21 53 -10 2 23 4 72 4 50 1 97 3 105 5
10 2 14 -3 12 -15 -2 -14 2 -18 15 -15 10 2 17 8 16 14 -1 5 19 7 43 5 30 -2
44 -8 44 -17 0 -8 7 -17 15 -20 8 -4 12 -10 9 -15 -3 -5 4 -9 15 -9 11 0 23
-4 26 -10 3 -5 14 -10 23 -9 11 0 12 3 5 6 -7 2 -13 12 -13 20 0 12 7 14 28 9
15 -3 50 -9 77 -12 28 -4 52 -11 55 -15 3 -5 39 -11 80 -14 107 -8 269 -36
298 -51 28 -14 52 -9 52 12 0 13 48 20 110 16 8 0 22 4 32 9 9 5 68 11 129 14
62 3 117 9 124 15 7 6 21 9 31 9 11 -1 39 -1 64 0 45 2 45 2 20 17 -25 14 -24
14 13 8 37 -6 67 7 67 29 0 6 -3 7 -6 4 -4 -3 -18 3 -32 13 -15 13 -38 20 -61
19 l-36 -2 35 -7 35 -7 -32 -2 c-17 0 -35 3 -38 9 -3 5 -24 14 -45 20 -24 6
-40 17 -40 25 0 9 -9 15 -22 14 -17 -1 -19 -2 -5 -6 9 -2 17 -9 17 -15 0 -7
-25 -8 -72 -3 -76 8 -134 27 -140 46 -2 7 -24 14 -48 16 -24 2 -47 7 -50 12
-3 5 -40 12 -82 16 -63 6 -78 5 -78 -6 -1 -10 -4 -9 -14 4 -7 9 -18 17 -24 17
-6 0 -15 7 -20 16 -6 12 -18 15 -36 12 -14 -3 -26 -1 -26 4 0 5 -4 7 -9 4 -16
-10 -124 23 -148 46 -15 14 -34 21 -58 20 -23 -1 -42 5 -55 18 -11 11 -32 20
-47 21 -16 0 -41 9 -58 19 -68 42 -92 53 -130 56 -22 1 -54 10 -70 18 -17 9
-47 19 -68 22 -35 6 -38 9 -33 33 3 14 3 20 0 14 -8 -17 -29 -16 -44 2 -7 8
-21 15 -32 15 -10 0 -30 8 -45 17 -14 9 -38 17 -52 18 -19 0 -25 5 -23 18 2 9
-4 20 -13 23 -8 3 -15 12 -15 20 0 10 -7 13 -24 8 -18 -4 -27 -1 -36 15 -6 12
-17 21 -25 21 -8 0 -15 6 -15 14 0 17 -49 27 -72 15 -13 -7 -20 -4 -27 10 -6
10 -22 22 -36 25 -35 9 -95 64 -88 82 3 8 0 14 -6 14 -6 0 -11 -6 -11 -12 -1
-7 -9 -3 -19 10 -11 12 -29 22 -40 22 -12 0 -21 5 -21 10 0 6 -7 10 -15 10 -8
0 -34 18 -56 40 -25 24 -34 38 -23 34 16 -5 16 -4 4 5 -8 6 -22 11 -31 11 -9
0 -29 11 -44 24 -16 14 -31 24 -35 23 -6 -2 -24 13 -119 103 -35 33 -69 60
-75 60 -13 1 -86 65 -86 76 0 17 -53 62 -66 57 -13 -5 -19 8 -15 31 1 5 -5 6
-14 3 -9 -4 -15 -1 -15 7 0 7 -11 19 -25 26 -14 7 -25 19 -25 27 0 7 -9 13
-19 13 -25 0 -141 116 -141 141 0 14 -7 19 -25 19 -14 0 -25 5 -25 10 0 6 -25
34 -55 64 -30 29 -55 61 -55 70 0 9 -4 16 -8 16 -9 0 -46 59 -47 75 -1 6 -7 9
-14 7 -7 -1 -10 2 -7 6 3 5 -3 20 -14 32 -11 13 -20 30 -20 38 0 9 -3 13 -6 9
-3 -3 -17 7 -31 23 -13 16 -32 32 -43 35 -12 4 -17 12 -13 22 5 13 2 15 -15
11 -15 -4 -22 -2 -22 8 0 9 -11 14 -30 14 -23 0 -30 4 -30 20 0 11 -4 20 -10
20 -5 0 -10 -9 -10 -20 0 -11 5 -20 10 -20 6 0 10 -9 10 -20 0 -15 -7 -20 -25
-20 -22 0 -25 4 -25 38 0 33 4 39 30 49 42 16 37 36 -11 51 -50 16 -72 3 -46
-26 13 -14 17 -38 17 -104 0 -77 -2 -86 -20 -91 -13 -3 -20 0 -20 9 0 16 -26
19 -35 4 -3 -5 -2 -10 2 -10 5 0 7 -17 5 -38 -3 -26 1 -44 12 -55 10 -9 16
-33 16 -59 0 -32 5 -47 20 -58 31 -22 24 -30 -25 -30 -25 0 -45 -4 -45 -10 0
-5 -7 -10 -15 -10 -9 0 -15 9 -15 24 0 14 -10 30 -25 40 -14 9 -25 21 -25 26
0 6 11 10 25 10 16 0 25 6 25 15 0 8 -8 15 -19 15 -10 0 -34 14 -52 30 -28 25
-31 32 -19 39 8 6 12 11 10 13 -3 2 -19 13 -37 26 -54 37 -60 31 -68 -58 -4
-44 -11 -80 -15 -80 -4 0 -11 36 -15 80 -7 83 -25 111 -25 40 l0 -40 -80 0
-80 0 0 40 0 40 -50 0 -50 0 0 40 c0 22 5 40 10 40 19 0 10 28 -15 44 -28 18
-33 36 -10 36 11 0 15 11 15 39 0 34 -4 40 -30 50 -18 6 -30 6 -30 0z m101
-309 c19 0 39 -28 39 -54 0 -36 -19 -33 -26 4 -4 17 -13 30 -20 30 -10 0 -14
12 -13 38 2 30 3 32 6 10 2 -16 9 -28 14 -28z m-181 -5 c0 -8 -7 -15 -15 -15
-16 0 -20 12 -8 23 11 12 23 8 23 -8z m543 -27 c30 -31 14 -46 -17 -15 -15 15
-31 27 -36 27 -6 0 -10 5 -10 11 0 15 41 0 63 -23z m-160 -75 c-13 -2 -33 -2
-45 0 -13 2 -3 4 22 4 25 0 35 -2 23 -4z m157 -138 c0 -8 5 -15 10 -15 6 0 10
-11 10 -25 0 -22 4 -25 39 -25 25 0 41 -5 45 -15 4 -10 -1 -15 -16 -15 -20 0
-20 -3 -14 -70 7 -66 6 -70 -13 -70 -12 0 -21 -4 -21 -10 0 -5 -4 -10 -10 -10
-5 0 -10 11 -10 25 0 23 -4 25 -40 25 -29 0 -40 4 -40 15 0 11 12 15 50 15
l50 0 0 40 c0 37 -2 40 -29 40 -27 0 -29 3 -33 48 -3 26 -3 50 -1 55 7 13 23
8 23 -8z m-270 -160 c10 -13 9 -15 -9 -15 -12 0 -21 6 -21 15 0 8 4 15 9 15 5
0 14 -7 21 -15z m235 -105 c-3 -5 -1 -10 4 -10 6 0 11 -4 11 -8 0 -14 -48 -32
-85 -32 -28 0 -35 4 -35 20 0 17 7 20 40 20 22 0 40 5 40 10 0 6 7 10 16 10 8
0 12 -4 9 -10z m160 0 c-3 -5 -10 -10 -16 -10 -5 0 -9 5 -9 10 0 6 7 10 16 10
8 0 12 -4 9 -10z m-442 -107 c-13 -2 -33 -2 -45 0 -13 2 -3 4 22 4 25 0 35 -2
23 -4z m89 -85 l1 -43 4 43 c6 57 33 59 33 2 0 -36 3 -40 25 -40 16 0 25 -6
25 -15 0 -11 -11 -15 -40 -15 -22 0 -40 4 -40 9 0 5 -11 12 -25 15 -21 5 -25
12 -25 46 0 33 3 40 20 40 17 0 20 -7 22 -42z m218 -288 c0 -5 -4 -10 -10 -10
-5 0 -10 5 -10 10 0 6 5 10 10 10 6 0 10 -4 10 -10z m110 -55 c0 -8 9 -15 20
-15 21 0 25 -8 12 -26 -4 -8 -26 -10 -59 -7 -41 4 -52 9 -57 26 -8 30 1 37 45
37 28 0 39 -4 39 -15z m-1 -99 c-2 -2 -21 -9 -41 -14 -31 -8 -38 -8 -38 4 0
10 12 14 42 14 23 0 39 -2 37 -4z m361 -276 c0 -4 -9 -10 -20 -13 -15 -4 -20
0 -20 13 0 13 5 17 20 13 11 -3 20 -9 20 -13z m1940 -10 c0 -5 -5 -10 -11 -10
-5 0 -7 5 -4 10 3 6 8 10 11 10 2 0 4 -4 4 -10z m-1630 -175 c10 -13 9 -15 -9
-15 -12 0 -21 6 -21 15 0 8 4 15 9 15 5 0 14 -7 21 -15z m-125 -5 c15 -7 10
-9 -22 -9 -24 -1 -43 4 -43 9 0 12 37 12 65 0z m488 -7 c-7 -2 -19 -2 -25 0
-7 3 -2 5 12 5 14 0 19 -2 13 -5z m-313 -93 c0 -5 -18 -10 -40 -10 -22 0 -40
5 -40 10 0 6 18 10 40 10 22 0 40 -4 40 -10z m1360 -25 c0 -19 -11 -19 -36 0
-18 14 -18 14 9 15 17 0 27 -5 27 -15z m-776 -78 c1 -32 -3 -47 -11 -47 -9 0
-13 17 -13 51 0 65 22 62 24 -4z m586 43 c0 -5 -11 -10 -25 -10 -14 0 -25 5
-25 10 0 6 11 10 25 10 14 0 25 -4 25 -10z m-327 -100 c30 0 37 -4 37 -19 0
-16 -9 -20 -57 -23 -32 -2 -60 0 -61 5 -2 4 -10 14 -18 21 -23 23 -16 29 24
22 20 -3 54 -6 75 -6z m-307 -30 c8 0 14 -9 14 -20 0 -13 -7 -20 -20 -20 -16
0 -20 6 -19 33 0 17 3 26 6 20 2 -7 11 -13 19 -13z m1704 10 c0 -5 -7 -10 -16
-10 -8 0 -12 5 -9 10 3 6 10 10 16 10 5 0 9 -4 9 -10z m-1840 -25 c0 -22 -4
-25 -37 -25 l-38 1 28 24 c36 32 47 31 47 0z m350 -90 c10 -13 9 -15 -9 -15
-12 0 -21 6 -21 15 0 8 4 15 9 15 5 0 14 -7 21 -15z"/>
<path d="M2040 2096 c0 -2 7 -6 15 -10 8 -3 15 -1 15 4 0 6 -7 10 -15 10 -8 0
-15 -2 -15 -4z"/>
<path d="M940 3400 c0 -22 5 -40 10 -40 6 0 10 18 10 40 0 22 -4 40 -10 40 -5
0 -10 -18 -10 -40z"/>
<path d="M1680 3334 c0 -14 7 -32 15 -40 13 -14 15 -11 15 25 0 30 -4 41 -15
41 -9 0 -15 -10 -15 -26z"/>
<path d="M2095 3260 c-22 -9 -13 -15 38 -23 21 -3 27 0 27 14 0 20 -28 24 -65
9z"/>
<path d="M951 3078 c1 -28 3 -34 6 -18 3 14 9 29 14 35 14 14 11 25 -6 25 -11
0 -15 -11 -14 -42z"/>
<path d="M1095 2950 c3 -5 10 -10 16 -10 5 0 9 5 9 10 0 6 -7 10 -16 10 -8 0
-12 -4 -9 -10z"/>
<path d="M1420 2760 c0 -22 5 -40 10 -40 6 0 10 -7 10 -15 0 -18 16 -20 26 -4
3 6 0 15 -7 20 -8 5 -12 22 -11 44 3 26 0 35 -12 35 -12 0 -16 -10 -16 -40z"/>
<path d="M320 2730 c0 -5 5 -10 10 -10 6 0 10 5 10 10 0 6 -4 10 -10 10 -5 0
-10 -4 -10 -10z"/>
<path d="M0 2626 c0 -37 4 -66 10 -66 6 0 10 18 10 40 0 30 4 40 16 40 21 0
13 20 -14 38 -22 14 -22 14 -22 -52z"/>
<path d="M1497 2663 c-7 -13 5 -83 14 -83 5 0 9 20 9 45 0 40 -11 58 -23 38z"/>
<path d="M60 2600 c0 -29 4 -40 15 -40 11 0 15 11 15 40 0 29 -4 40 -15 40
-11 0 -15 -11 -15 -40z"/>
<path d="M270 2520 c0 -22 5 -40 10 -40 6 0 10 18 10 40 0 22 -4 40 -10 40 -5
0 -10 -18 -10 -40z"/>
<path d="M1470 2520 c0 -29 4 -40 15 -40 11 0 15 11 15 40 0 29 -4 40 -15 40
-11 0 -15 -11 -15 -40z"/>
<path d="M3 2360 c0 -25 2 -35 4 -22 2 12 2 32 0 45 -2 12 -4 2 -4 -23z"/>
<path d="M160 2245 c0 -11 11 -15 40 -15 38 0 40 -1 40 -31 l0 -31 -77 7 c-43
4 -80 12 -82 17 -2 6 -12 0 -22 -13 l-19 -24 -20 25 -20 25 0 -142 0 -143 25
0 c15 0 25 -6 25 -15 0 -8 -11 -17 -25 -21 l-25 -6 0 -280 c0 -278 0 -280 23
-299 l22 -18 -22 -1 -23 0 0 -640 0 -640 865 0 c535 0 865 4 865 9 0 20 -46
41 -87 41 -32 0 -43 4 -43 15 0 13 24 15 160 15 136 0 160 -2 160 -15 0 -11
-11 -15 -40 -15 -29 0 -40 -4 -40 -15 0 -11 -11 -15 -40 -15 -22 0 -40 -4 -40
-10 0 -6 100 -9 283 -8 155 1 263 3 240 5 -35 3 -43 8 -43 24 0 16 -7 19 -40
19 -22 0 -40 5 -40 10 0 6 -18 10 -40 10 -33 0 -40 3 -40 20 0 17 7 20 40 20
54 0 56 27 3 33 l-38 4 38 1 c25 1 37 7 37 17 0 11 11 15 40 15 33 0 40 3 40
20 0 17 -7 20 -39 20 -22 0 -42 5 -44 13 -3 6 -6 -7 -6 -30 -1 -36 -4 -43 -21
-43 -17 0 -20 7 -20 40 0 22 5 40 10 40 6 0 10 22 10 49 0 60 -22 81 -86 81
-34 0 -46 -5 -63 -27 l-21 -28 -20 25 c-11 14 -20 19 -20 13 0 -8 -15 -13 -40
-13 -22 0 -40 -4 -40 -10 0 -5 -4 -10 -10 -10 -5 0 -10 18 -10 40 0 33 -3 40
-20 40 -17 0 -20 -7 -20 -40 0 -22 -4 -40 -10 -40 -5 0 -10 18 -10 40 0 22 5
40 10 40 6 0 10 18 10 41 0 33 -3 40 -16 35 -9 -3 -31 -6 -50 -6 -24 0 -34 -5
-34 -15 0 -11 11 -15 40 -15 22 0 40 -4 40 -10 0 -5 -18 -10 -40 -10 -36 0
-40 -2 -40 -25 0 -26 -14 -33 -26 -13 -4 7 -7 31 -5 55 2 35 -1 43 -15 43 -14
0 -16 8 -11 53 3 34 0 61 -9 80 -13 24 -20 27 -69 27 l-55 0 0 39 c0 23 5 41
13 44 6 2 1 2 -11 0 -13 -2 -30 1 -38 8 -19 16 -73 -6 -56 -23 11 -11 5 -39
-11 -50 -14 -8 -38 2 -31 13 3 5 0 9 -5 9 -6 0 -11 -5 -11 -11 0 -5 -6 -7 -12
-3 -9 5 -9 3 1 -9 7 -9 16 -15 20 -13 3 2 6 -11 6 -29 0 -21 -7 -37 -17 -44
-12 -7 -18 -8 -18 -1 0 5 5 10 10 10 6 0 10 5 10 12 0 6 -3 9 -6 5 -4 -3 -15
4 -25 16 -10 12 -18 16 -19 10 0 -7 5 -13 10 -13 6 0 10 -11 10 -25 0 -14 -4
-25 -9 -25 -5 0 -7 10 -4 22 l5 23 -16 -23 c-14 -18 -21 -20 -37 -12 -11 6
-16 16 -13 22 5 7 11 6 19 -5 7 -9 15 -14 18 -10 10 9 -25 32 -48 33 -17 0
-17 -2 -5 -10 12 -8 12 -10 1 -10 -9 0 -6 -7 9 -20 13 -11 20 -23 16 -27 -3
-4 -13 2 -20 13 -14 18 -15 18 -21 2 -9 -22 -24 -23 -53 -2 -17 11 -20 19 -13
28 7 9 7 16 -1 24 -9 9 -9 15 -1 23 8 8 13 8 17 0 4 -6 15 -11 24 -10 14 0 13
2 -3 9 -19 8 -19 9 1 9 23 1 38 25 27 44 -3 7 -2 8 3 4 5 -5 9 -20 9 -34 0
-15 7 -28 15 -30 11 -4 12 -2 2 5 -23 16 -3 41 30 37 17 -2 27 -1 24 2 -7 7
13 33 26 33 5 0 6 -4 3 -10 -3 -5 -1 -10 5 -10 6 0 8 12 5 32 -7 35 -15 50
-15 26 0 -8 -10 -26 -22 -40 -24 -27 -51 -26 -75 4 -10 11 -8 14 6 14 11 0 17
-6 14 -13 -6 -16 33 -18 43 -1 4 6 8 24 9 40 3 27 1 28 -41 28 -32 0 -44 4
-44 15 0 8 -7 15 -15 15 -19 0 -22 86 -3 92 6 2 12 14 13 26 1 11 -2 19 -7 16
-5 -3 -7 -11 -5 -17 2 -7 -7 -17 -21 -24 -35 -18 -39 -16 -12 7 14 12 18 20 9
20 -7 0 1 13 19 30 18 16 29 30 24 30 -12 0 -62 -54 -62 -68 0 -7 -5 -12 -11
-12 -5 0 -7 6 -3 13 5 9 4 9 -6 0 -7 -6 -20 -9 -29 -6 -13 4 -14 3 -1 -5 8 -6
19 -8 25 -5 5 3 5 0 -1 -6 -9 -10 -17 -10 -34 -1 -17 9 -21 9 -15 0 4 -7 1
-10 -11 -8 -16 3 -18 -4 -18 -59 0 -54 -2 -61 -15 -50 -12 10 -14 9 -8 -8 6
-18 6 -18 -6 -4 -9 12 -16 14 -29 5 -22 -14 -73 14 -74 41 -1 30 -25 83 -35
77 -5 -3 -9 -1 -9 4 0 16 -32 24 -44 11 -8 -9 -6 -10 7 -6 11 4 16 3 12 -4
-10 -16 -30 -5 -30 17 0 10 -6 18 -12 17 -7 -2 -13 2 -13 8 0 7 -10 9 -27 5
-16 -4 -23 -3 -18 1 6 4 10 14 10 22 0 8 24 26 53 41 29 14 49 30 45 35 -4 4
-3 5 4 2 17 -11 45 4 39 20 -3 8 -1 11 4 8 6 -3 10 -2 10 4 0 5 -6 12 -12 14
-8 3 -5 6 5 6 10 1 15 6 12 11 -4 6 -10 8 -14 5 -5 -2 -7 16 -6 42 1 36 -2 47
-16 50 -10 3 -15 11 -12 19 7 19 23 18 23 -1 0 -8 5 -15 11 -15 6 0 8 -7 5
-16 -4 -10 -2 -13 6 -8 7 5 8 3 2 -7 -22 -36 -6 -76 19 -49 9 10 8 12 -7 6
-14 -5 -17 -2 -12 10 3 8 6 20 6 25 0 5 4 9 10 9 5 0 7 -8 3 -17 -4 -12 1 -10
16 7 12 14 19 19 16 12 -5 -10 0 -13 16 -12 41 4 49 1 49 -17 0 -15 -2 -16
-10 -3 -5 8 -11 12 -14 9 -7 -6 22 -49 33 -49 5 0 8 12 7 27 -1 26 1 27 50 28
32 0 51 -4 51 -12 0 -6 -7 -9 -16 -6 -13 4 -13 3 -2 -5 8 -6 10 -16 6 -23 -4
-8 23 16 60 54 37 37 74 67 81 67 23 0 55 -42 48 -63 -4 -12 -2 -17 4 -13 11
6 24 48 14 43 -11 -5 -52 42 -42 48 10 6 2 35 -10 35 -5 0 -6 -8 -3 -19 3 -12
-2 -21 -14 -25 -10 -3 -25 -9 -33 -13 -13 -5 -13 -4 -1 10 15 19 1 23 -17 5
-9 -9 -12 -9 -12 0 0 7 5 12 11 12 8 0 7 6 -2 17 -8 9 -14 32 -14 52 0 34 -2
36 -32 37 -52 1 -60 -11 -28 -40 35 -32 37 -32 24 0 -14 38 -4 41 11 4 9 -22
10 -33 1 -44 -6 -7 -9 -21 -5 -30 3 -9 1 -16 -6 -16 -6 0 -8 -5 -4 -11 4 -8 9
-7 15 2 5 8 9 9 9 3 0 -5 -7 -19 -15 -30 -13 -17 -14 -17 -15 -1 0 15 -2 15
-20 -3 -12 -12 -26 -17 -36 -13 -11 4 -15 2 -11 -4 4 -6 -5 -10 -23 -9 -19 1
-30 6 -30 16 0 13 -1 13 -10 0 -9 -14 -14 -7 -11 13 1 5 -8 25 -21 44 -12 20
-23 47 -24 60 -3 23 23 59 35 48 3 -4 -2 -12 -12 -19 -22 -17 -22 -25 2 -23
12 1 17 6 13 16 -3 8 -1 12 4 9 11 -7 54 9 54 20 0 5 -21 8 -47 8 -96 1 -146
4 -140 10 3 3 -3 14 -14 25 -10 10 -19 25 -19 32 1 6 10 1 22 -13 14 -16 19
-19 15 -7 -14 37 0 44 93 43 50 -1 90 3 90 8 0 4 -8 6 -17 2 -12 -4 -10 0 5
10 12 9 22 21 22 26 0 5 -12 1 -27 -10 -25 -18 -27 -18 -45 0 -21 21 -45 25
-26 4 7 -8 18 -11 23 -8 6 3 6 1 2 -4 -11 -11 -68 -14 -61 -3 3 5 -2 9 -10 9
-9 0 -15 -4 -13 -9 1 -5 -1 -9 -5 -10 -22 -3 -28 0 -22 11 4 6 3 8 -4 4 -6 -3
-13 -2 -17 4 -3 5 1 10 9 10 19 0 21 16 4 26 -7 4 -8 3 -4 -4 4 -7 2 -12 -3
-12 -6 0 -11 6 -11 13 0 8 -3 7 -10 -3 -6 -9 -3 -23 8 -42 19 -33 7 -52 -15
-23 -14 18 -15 18 -9 1 4 -13 2 -17 -8 -13 -8 3 -13 -1 -12 -11 0 -9 -7 -18
-18 -20 -12 -3 -16 0 -11 7 3 6 3 11 -2 10 -18 -3 -33 2 -33 11 0 5 8 7 18 4
15 -5 15 -4 -2 10 -10 8 -23 13 -28 10 -11 -7 9 -43 28 -51 7 -3 12 -9 9 -13
-3 -5 0 -12 6 -16 8 -4 9 -3 5 4 -5 8 0 12 13 12 12 0 21 5 21 10 0 6 5 10 11
10 5 0 7 -5 4 -10 -3 -6 1 -13 9 -16 20 -8 21 -21 1 -21 -8 0 -15 6 -15 14 0
11 -4 11 -22 1 -29 -15 -58 -18 -58 -5 0 6 -8 2 -19 -7 -12 -11 -18 -28 -16
-46 2 -20 -2 -30 -11 -30 -7 0 -17 -8 -23 -17 -9 -17 -10 -17 -16 0 -4 9 -13
17 -21 17 -8 0 -14 5 -14 11 0 6 -7 9 -15 5 -12 -4 -13 -2 -7 12 5 9 7 23 4
31 -2 8 0 11 5 8 6 -4 18 2 28 13 10 11 23 20 29 20 6 -1 2 -8 -9 -18 -22 -18
-22 -47 -2 -55 17 -6 51 19 38 28 -6 3 -11 2 -11 -3 0 -5 -7 -9 -15 -9 -19 0
-19 5 -1 23 10 9 17 10 21 4 4 -6 11 -7 17 -4 6 4 5 10 -3 16 -11 8 -10 9 4 4
27 -9 21 20 -10 44 -16 12 -22 18 -15 15 8 -4 24 3 38 16 13 12 24 18 24 14 0
-5 7 1 16 13 8 12 18 20 22 18 4 -2 8 14 10 35 l2 39 -40 0 c-29 0 -40 -4 -40
-15 0 -11 -11 -15 -40 -15 -38 0 -40 2 -40 30 0 17 -4 30 -10 30 -6 0 -10 33
-10 80 0 47 4 80 10 80 6 0 10 -18 10 -40 l0 -40 51 0 51 0 -3 46 c-3 38 1 50
20 65 31 25 41 24 41 -6 0 -14 5 -25 10 -25 6 0 10 18 10 40 0 22 -4 40 -10
40 -5 0 -10 18 -10 40 0 22 5 40 10 40 15 0 12 70 -4 86 -8 8 -31 14 -50 14
l-36 0 0 -50 0 -50 -67 0 -66 0 6 -120 c5 -77 3 -120 -3 -120 -6 0 -10 -18
-10 -40 0 -23 -5 -40 -11 -40 -8 0 -9 24 -4 80 7 77 6 80 -14 80 -18 0 -21 6
-21 40 0 36 -2 40 -25 40 -16 0 -25 6 -25 16 0 9 -6 14 -12 11 -9 -2 -12 -20
-10 -55 l4 -52 -31 0 -31 0 0 61 c0 40 5 66 13 73 9 7 12 26 9 59 -4 43 -6 47
-30 47 -24 0 -24 1 -8 19 17 19 17 20 -3 31 -15 8 -27 8 -42 0 -20 -11 -20
-12 -3 -31 17 -18 16 -19 -29 -19 l-47 0 0 40 c0 38 2 40 30 40 28 0 30 2 30
40 0 38 -2 40 -30 40 -28 0 -30 2 -30 40 0 39 -1 40 -34 40 -19 0 -38 5 -41
10 -9 15 -25 12 -25 -5z m-2 -128 c3 -32 0 -37 -17 -37 -18 0 -21 6 -21 41 0
33 3 40 18 37 12 -2 18 -14 20 -41z m82 3 c0 -29 -4 -40 -15 -40 -11 0 -15 11
-15 40 0 29 4 40 15 40 11 0 15 -11 15 -40z m160 -185 c0 -11 -11 -15 -40 -15
-29 0 -40 4 -40 15 0 11 11 15 40 15 29 0 40 -4 40 -15z m-320 -90 c0 -8 -7
-15 -15 -15 -13 0 -14 3 -3 15 16 18 18 18 18 0z m80 -45 c0 -17 -7 -20 -40
-20 -33 0 -40 3 -40 20 0 17 7 20 40 20 33 0 40 -3 40 -20z m-83 -36 c-3 -3
-12 -4 -19 -1 -8 3 -5 6 6 6 11 1 17 -2 13 -5z m469 -178 c35 -35 -4 -50 -43
-17 -13 11 -23 22 -23 25 0 12 52 6 66 -8z m-146 -76 c0 -5 -2 -10 -4 -10 -3
0 -8 5 -11 10 -3 6 -1 10 4 10 6 0 11 -4 11 -10z m380 -2 c0 -4 -6 -7 -12 -5
-7 1 -12 -3 -11 -9 1 -7 -6 -14 -16 -17 -10 -2 -18 1 -18 9 0 7 4 11 9 8 4 -3
8 -1 8 5 0 5 -6 11 -12 14 -7 2 2 4 20 4 17 0 32 -4 32 -9z m-242 -56 c2 -7
-6 -12 -17 -12 -21 0 -27 11 -14 24 9 9 26 2 31 -12z m-203 -2 c3 -5 1 -10 -4
-10 -6 0 -11 5 -11 10 0 6 2 10 4 10 3 0 8 -4 11 -10z m122 -72 c-2 -13 -4 -3
-4 22 0 25 2 35 4 23 2 -13 2 -33 0 -45z m216 47 c4 -8 2 -17 -3 -20 -6 -4
-10 3 -10 14 0 25 6 27 13 6z m44 -31 c-3 -3 -12 -4 -19 -1 -8 3 -5 6 6 6 11
1 17 -2 13 -5z m-127 -83 c-7 -18 -17 -28 -23 -24 -8 5 -8 8 0 10 7 3 9 11 6
20 -5 12 -3 14 7 8 10 -6 12 -3 7 15 -4 16 -3 20 5 12 8 -8 7 -19 -2 -41z
m554 23 c3 -8 2 -12 -4 -9 -6 3 -10 10 -10 16 0 14 7 11 14 -7z m46 0 c0 -8
-4 -12 -10 -9 -5 3 -10 10 -10 16 0 5 5 9 10 9 6 0 10 -7 10 -16z m-594 -59
c-3 -9 0 -15 10 -15 8 0 13 4 10 9 -4 5 0 8 6 7 26 -3 38 -18 39 -44 0 -24 1
-25 9 -7 8 19 9 19 9 -4 1 -16 -3 -21 -13 -18 -16 6 -41 -17 -32 -31 3 -5 -2
-9 -10 -9 -8 0 -13 6 -10 13 5 14 -19 44 -35 44 -13 0 -11 -6 7 -24 8 -9 11
-16 5 -16 -18 0 -31 36 -19 48 9 9 9 12 0 12 -9 0 -7 8 5 25 21 28 28 32 19
10z m204 -10 c0 -8 -2 -15 -4 -15 -2 0 -6 7 -10 15 -3 8 -1 15 4 15 6 0 10 -7
10 -15z m386 0 c-3 -9 3 -24 14 -35 11 -11 15 -20 8 -20 -6 0 -9 -2 -6 -5 6
-6 -45 -65 -56 -65 -3 0 -3 7 1 16 5 13 1 15 -18 10 -20 -6 -21 -5 -6 4 9 6
21 9 26 6 4 -3 17 1 27 9 17 12 18 17 7 46 -7 17 -10 36 -7 40 9 15 16 10 10
-6z m-186 -68 c0 -5 -7 -3 -16 4 -15 12 -16 11 -9 -10 6 -21 5 -22 -8 -10 -9
9 -12 18 -6 25 5 6 6 20 3 30 -6 15 -2 14 14 -5 12 -13 22 -28 22 -34z m-280
39 c0 -2 -8 -10 -17 -17 -16 -13 -17 -12 -4 4 13 16 21 21 21 13z m-624 -21
l29 -15 -37 0 c-29 0 -36 3 -32 15 7 18 5 18 40 0z m64 -45 c0 -22 -4 -40 -10
-40 -5 0 -10 18 -10 40 0 22 5 40 10 40 6 0 10 -18 10 -40z m780 20 c0 -5 -7
-10 -15 -10 -8 0 -15 5 -15 10 0 6 7 10 15 10 8 0 15 -4 15 -10z m-337 -70
c21 0 42 -36 24 -43 -9 -4 -9 -7 0 -14 9 -6 7 -12 -7 -21 -12 -7 -20 -8 -20
-2 0 15 -57 12 -64 -2 -2 -7 -3 -2 -1 12 2 14 4 29 4 33 1 5 6 5 11 2 6 -3 10
-1 10 4 0 6 -7 11 -15 11 -8 0 -15 -7 -15 -15 0 -8 -4 -15 -8 -15 -21 0 -6 31
20 42 18 8 26 18 23 28 -3 10 -1 10 9 -2 7 -10 20 -18 29 -18z m37 26 c0 -2
-9 -6 -20 -9 -11 -3 -18 -1 -14 4 5 9 34 13 34 5z m-129 -94 c-7 -2 -18 1 -23
6 -8 8 -4 9 13 5 13 -4 18 -8 10 -11z m125 -32 c0 -11 -4 -20 -9 -20 -5 0 -4
-6 2 -14 9 -11 9 -16 0 -22 -8 -5 -9 -3 -4 7 8 12 6 12 -8 0 -9 -7 -17 -20
-17 -27 0 -8 -5 -14 -11 -14 -6 0 -8 9 -4 20 4 12 2 20 -5 20 -6 0 -9 -4 -6
-9 9 -14 -20 -21 -33 -8 -9 9 -11 8 -5 -6 4 -10 13 -16 21 -13 11 4 11 1 3
-15 -8 -15 -8 -24 0 -34 10 -12 7 -12 -13 -2 -21 10 -22 13 -10 22 23 17 -11
43 -36 28 -13 -8 -17 -7 -17 8 0 14 5 17 19 13 13 -4 17 -2 13 5 -4 6 0 11 8
11 19 0 22 20 4 20 -7 1 -2 10 12 21 22 18 25 19 36 5 15 -22 31 -20 44 4 6
11 12 20 13 20 2 0 3 -9 3 -20z m99 10 c-3 -5 -1 -10 4 -10 6 0 11 4 11 8 0 4
9 8 20 8 26 0 11 -15 -19 -18 -13 -2 -26 3 -28 10 -3 6 0 12 7 12 6 0 8 -4 5
-10z m95 1 c0 -5 -7 -12 -16 -15 -24 -9 -28 -7 -14 9 14 17 30 20 30 6z m-311
-8 c0 -5 -4 -17 -9 -28 -8 -18 -9 -17 -9 8 -1 15 4 27 9 27 6 0 10 -3 9 -7z
m251 -23 c0 -5 -5 -10 -11 -10 -5 0 -7 5 -4 10 3 6 8 10 11 10 2 0 4 -4 4 -10z
m-610 -80 c0 -22 -4 -40 -10 -40 -11 0 -14 63 -3 73 11 12 13 8 13 -33z m480
24 c0 -2 -7 -4 -15 -4 -8 0 -15 4 -15 10 0 5 7 7 15 4 8 -4 15 -8 15 -10z m-3
-34 c-4 -22 -17 -40 -17 -22 0 7 -4 12 -10 12 -5 0 -6 -7 -3 -17 5 -12 3 -14
-8 -7 -8 5 -18 9 -23 9 -20 0 -16 26 6 34 39 16 58 13 55 -9z m-120 3 c-9 -2
-15 -8 -12 -13 3 -5 0 -12 -6 -16 -8 -4 -9 -3 -5 4 4 7 1 12 -6 12 -9 0 -9 3
2 10 8 5 22 9 30 9 11 -1 10 -3 -3 -6z m273 -20 c0 -15 -2 -16 -10 -3 -8 12
-10 12 -10 1 0 -8 -3 -12 -6 -8 -8 7 4 27 17 27 5 0 9 -8 9 -17z m-180 -28
c18 11 70 14 70 4 0 -5 -6 -9 -12 -9 -9 0 -8 -4 2 -10 19 -12 33 -13 26 -2 -3
5 1 9 8 9 8 0 12 -10 10 -25 -3 -31 14 -49 52 -55 26 -4 25 -4 -7 -6 -26 -1
-39 4 -43 16 -6 14 -12 11 -41 -17 -36 -35 -40 -57 -5 -25 16 14 19 15 15 4
-3 -9 2 -22 11 -30 15 -12 17 -12 12 1 -8 22 41 19 73 -5 26 -19 26 -20 5 -30
-12 -6 -21 -18 -20 -26 1 -18 -40 -23 -54 -6 -5 6 -12 25 -16 40 -4 17 -11 25
-18 21 -7 -4 -8 -3 -4 4 4 8 -3 10 -24 7 -17 -2 -28 1 -25 6 3 4 1 18 -6 30
-9 17 -8 23 2 30 10 6 8 9 -8 9 -25 0 -29 -10 -12 -27 15 -15 7 -46 -13 -49
-11 -1 -15 3 -11 12 3 8 9 11 14 8 14 -8 11 2 -10 39 -14 26 -16 34 -5 34 7 0
10 -5 7 -10 -3 -6 -1 -7 6 -3 14 9 5 26 -13 26 -7 0 -13 7 -13 15 0 8 4 12 9
9 4 -3 8 3 8 13 0 14 2 15 9 4 5 -8 14 -10 21 -6z m-131 -147 c-1 -69 -2 -71
-10 -28 -11 64 -11 100 1 100 6 0 9 -30 9 -72z m261 39 c22 -4 21 -5 -4 -4
-17 1 -31 9 -33 17 -3 10 -2 11 4 4 4 -7 19 -14 33 -17z m270 -33 c0 -3 -7 -1
-15 6 -8 7 -15 17 -15 22 0 5 7 3 15 -6 8 -8 15 -18 15 -22z m-220 16 c0 -5
-2 -10 -4 -10 -3 0 -8 5 -11 10 -3 6 -1 10 4 10 6 0 11 -4 11 -10z m660 -14
c0 -2 -7 -9 -15 -16 -12 -10 -15 -10 -15 4 0 9 7 16 15 16 8 0 15 -2 15 -4z
m-625 -16 c4 -7 12 -7 25 0 10 5 22 10 27 10 4 -1 -4 -8 -20 -16 -24 -13 -30
-13 -49 1 -18 12 -19 15 -6 15 9 0 20 -5 23 -10z m-135 -20 c0 -5 -7 -10 -15
-10 -23 0 -18 -17 7 -23 12 -4 19 -9 15 -13 -3 -4 -18 1 -33 10 -24 17 -25 18
-7 31 22 17 33 19 33 5z m176 -5 c-17 -13 -15 -19 6 -16 13 1 1 -26 -31 -69
-19 -25 -31 -37 -28 -27 5 13 0 20 -18 27 -28 11 -34 30 -8 30 14 0 14 3 -3
22 -10 12 -14 18 -8 15 7 -4 17 0 24 8 6 7 18 11 25 9 8 -3 22 -1 32 5 26 15
31 13 9 -4z m199 -5 c-3 -5 -10 -10 -16 -10 -5 0 -9 5 -9 10 0 6 7 10 16 10 8
0 12 -4 9 -10z m372 -12 c1 -100 3 -108 23 -108 26 0 60 -34 60 -60 0 -17 7
-20 40 -20 29 0 40 -4 40 -15 0 -11 -11 -15 -40 -15 -22 0 -40 -4 -40 -10 0
-16 -15 -12 -44 11 -22 17 -25 24 -14 31 10 7 10 11 -4 22 -10 7 -18 23 -18
35 0 17 -6 21 -30 21 -29 0 -30 2 -30 45 0 31 4 45 13 44 24 -3 37 1 37 12 0
8 -5 8 -15 -1 -20 -16 -19 -6 1 14 20 21 21 20 21 -6z m-490 -36 c16 -10 18
-33 5 -64 -12 -28 -32 -38 -32 -16 0 6 -3 8 -6 5 -4 -4 -1 -13 6 -22 14 -17 6
-18 -25 -5 -11 5 -14 9 -7 9 6 1 12 6 12 11 0 6 -3 9 -7 9 -20 -3 -34 2 -28
11 3 6 2 10 -3 10 -5 0 -9 7 -9 15 0 12 3 12 16 2 12 -10 14 -9 8 7 -11 30 37
49 70 28z m109 -3 c3 -6 17 -8 31 -4 16 4 22 2 18 -5 -3 -5 1 -10 9 -10 15 0
17 -35 2 -58 -4 -7 -1 -15 8 -18 13 -5 13 -8 2 -20 -8 -7 -16 -19 -19 -26 -2
-7 -8 -9 -13 -5 -5 4 -2 12 6 17 8 5 11 12 7 16 -4 4 -15 0 -24 -8 -10 -8 -25
-18 -33 -22 -8 -4 1 6 20 23 38 33 35 41 -5 15 -13 -9 -29 -13 -36 -9 -8 5 -9
0 -5 -16 6 -19 5 -21 -3 -8 -12 19 5 83 20 73 5 -3 9 -1 9 5 0 5 -5 13 -11 17
-8 5 -8 9 1 14 7 4 9 13 5 20 -5 8 -11 5 -22 -9 -8 -12 -12 -25 -9 -29 3 -5
-1 -19 -8 -33 -7 -13 -11 -30 -8 -37 2 -6 -1 -12 -7 -12 -11 0 -15 19 -13 55
2 16 0 17 -8 5 -6 -9 -10 -10 -10 -3 0 6 7 18 15 27 8 8 15 18 15 23 0 7 35
29 52 32 4 0 10 -4 14 -10z m-306 -48 c0 -5 -7 -11 -14 -14 -10 -4 -13 -1 -9
9 6 15 23 19 23 5z m95 -11 c3 -5 1 -10 -4 -10 -6 0 -11 5 -11 10 0 6 2 10 4
10 3 0 8 -4 11 -10z m116 -44 c5 3 9 -2 9 -10 0 -9 -4 -16 -10 -16 -5 0 -10 2
-10 4 0 2 -2 10 -3 18 -2 7 -2 10 0 5 3 -4 9 -5 14 -1z m-54 -22 c-3 -3 -12
-4 -19 -1 -8 3 -5 6 6 6 11 1 17 -2 13 -5z m36 -6 c3 -9 -7 -13 -32 -14 -20
-1 -26 1 -13 3 12 2 22 9 22 14 0 13 17 11 23 -3z m210 -15 c-7 -2 -19 -2 -25
0 -7 3 -2 5 12 5 14 0 19 -2 13 -5z m-552 -16 c-1 -4 -1 -20 -1 -37 0 -16 -4
-30 -10 -30 -5 0 -10 18 -10 41 0 25 4 39 11 37 6 -2 10 -7 10 -11z m389 -52
c10 -13 9 -15 -9 -15 -12 0 -21 6 -21 15 0 8 4 15 9 15 5 0 14 -7 21 -15z
m-193 -77 c-2 -13 -4 -3 -4 22 0 25 2 35 4 23 2 -13 2 -33 0 -45z m-637 -29
c0 -5 -18 -9 -40 -9 -22 0 -40 4 -40 9 0 6 18 9 40 9 22 0 40 -4 40 -9z m1790
-29 c0 -29 -4 -40 -15 -40 -9 0 -15 9 -15 25 0 30 1 29 -38 9 -39 -19 -97 -15
-97 6 0 11 13 16 45 18 25 2 49 7 55 13 5 5 22 9 37 9 26 0 28 -3 28 -40z
m-810 -20 c0 -11 -4 -20 -9 -20 -5 0 -7 9 -4 20 3 11 7 20 9 20 2 0 4 -9 4
-20z m-130 -39 c-16 -32 -30 -34 -30 -7 0 19 5 26 20 26 17 0 19 -3 10 -19z
m573 12 c-13 -2 -33 -2 -45 0 -13 2 -3 4 22 4 25 0 35 -2 23 -4z m177 -4 c0
-8 24 -9 80 -4 71 6 80 5 80 -10 0 -15 -9 -16 -87 -10 -53 4 -94 13 -103 21
-12 12 -11 14 8 14 12 0 22 -5 22 -11z m-404 -36 c-3 -4 -16 -1 -28 4 l-23 11
25 10 c19 7 26 6 28 -5 2 -8 1 -17 -2 -20z m244 -3 c0 -5 -18 -10 -40 -10 -22
0 -40 5 -40 10 0 6 18 10 40 10 22 0 40 -4 40 -10z m-620 -20 c0 -5 -4 -10
-10 -10 -5 0 -10 5 -10 10 0 6 5 10 10 10 6 0 10 -4 10 -10z m-150 -21 c-32
-4 -59 -4 -64 2 -6 5 15 9 55 8 l64 -1 -55 -9z m-248 -14 c0 -5 -5 -11 -11
-13 -6 -2 -11 4 -11 13 0 9 5 15 11 13 6 -2 11 -8 11 -13z m58 0 c0 -8 -4 -15
-9 -15 -13 0 -22 16 -14 24 11 11 23 6 23 -9z m914 -21 c25 -10 19 -34 -9 -34
-16 0 -25 -6 -25 -15 0 -19 -14 -19 -30 0 -10 13 -9 15 9 15 14 0 21 6 21 20
0 21 8 24 34 14z m606 -84 c0 -5 -18 -10 -40 -10 -22 0 -40 5 -40 10 0 6 18
10 40 10 22 0 40 -4 40 -10z"/>
<path d="M668 830 c12 -5 22 -15 22 -22 0 -9 3 -8 10 2 10 16 -8 29 -40 29 -8
0 -5 -4 8 -9z"/>
<path d="M649 774 c-13 -15 -18 -25 -10 -22 13 4 49 48 39 48 -2 0 -15 -12
-29 -26z"/>
<path d="M735 700 c-3 -5 -1 -10 4 -10 6 0 11 5 11 10 0 6 -2 10 -4 10 -3 0
-8 -4 -11 -10z"/>
<path d="M1030 535 c0 -9 5 -15 11 -13 6 2 11 8 11 13 0 5 -5 11 -11 13 -6 2
-11 -4 -11 -13z"/>
<path d="M670 2120 c0 -22 5 -40 10 -40 6 0 10 18 10 40 0 22 -4 40 -10 40 -5
0 -10 -18 -10 -40z"/>
<path d="M820 1880 c0 -29 4 -40 15 -40 11 0 15 11 15 40 0 29 -4 40 -15 40
-11 0 -15 -11 -15 -40z"/>
<path d="M1980 1910 c0 -5 5 -10 10 -10 6 0 10 5 10 10 0 6 -4 10 -10 10 -5 0
-10 -4 -10 -10z"/>
<path d="M7558 1913 c7 -3 16 -2 19 1 4 3 -2 6 -13 5 -11 0 -14 -3 -6 -6z"/>
<path d="M7508 1903 c7 -3 16 -2 19 1 4 3 -2 6 -13 5 -11 0 -14 -3 -6 -6z"/>
<path d="M7428 1883 c6 -2 18 -2 25 0 6 3 1 5 -13 5 -14 0 -19 -2 -12 -5z"/>
<path d="M930 1860 c0 -11 4 -20 9 -20 5 0 12 -8 14 -17 3 -10 5 -1 6 20 1 27
-3 37 -14 37 -8 0 -15 -9 -15 -20z"/>
<path d="M7365 1870 c-13 -5 -14 -9 -5 -9 8 0 24 4 35 9 13 5 14 9 5 9 -8 0
-24 -4 -35 -9z"/>
<path d="M7275 1850 c-27 -7 -27 -8 -5 -8 14 0 36 4 50 8 20 6 21 8 5 8 -11 0
-33 -4 -50 -8z"/>
<path d="M2140 1826 c0 -8 5 -18 10 -21 6 -3 10 3 10 14 0 12 -4 21 -10 21 -5
0 -10 -6 -10 -14z"/>
<path d="M901 1774 c0 -11 3 -14 6 -6 3 7 2 16 -1 19 -3 4 -6 -2 -5 -13z"/>
<path d="M1200 1690 c0 -5 5 -10 10 -10 6 0 10 5 10 10 0 6 -4 10 -10 10 -5 0
-10 -4 -10 -10z"/>
<path d="M1039 1638 c-1 -24 -1 -46 0 -50 2 -12 -17 -10 -24 2 -3 6 -13 10
-20 10 -12 0 -12 -4 2 -19 12 -15 21 -17 35 -10 12 6 25 6 41 -1 21 -11 22
-11 2 5 -11 9 -19 18 -17 20 1 3 2 23 2 45 0 54 -20 51 -21 -2z"/>
<path d="M1280 1610 c0 -5 7 -10 16 -10 8 0 12 5 9 10 -3 6 -10 10 -16 10 -5
0 -9 -4 -9 -10z"/>
<path d="M912 1584 c-9 -9 -7 -18 6 -34 15 -18 21 -20 45 -11 30 11 38 24 10
15 -16 -5 -17 -4 -2 8 12 10 13 16 5 24 -15 14 -50 12 -64 -2z m45 -24 c-10
-18 -27 -27 -27 -16 0 2 -3 11 -6 20 -3 9 -1 16 6 16 6 0 8 -6 5 -12 -3 -7 0
-5 7 4 17 23 31 12 15 -12z"/>
<path d="M1093 1580 c9 -16 12 -16 25 -3 19 19 26 10 12 -17 -6 -12 -9 -24 -6
-28 3 -3 6 -1 6 5 0 18 43 23 55 7 9 -13 11 -12 11 5 0 11 -4 17 -8 15 -16
-10 -8 9 10 23 15 13 15 13 -5 3 -12 -5 -25 -15 -28 -20 -3 -6 -11 -10 -17
-10 -6 0 -4 8 5 18 15 16 13 17 -28 18 -39 1 -42 -1 -32 -16z"/>
<path d="M1211 1569 c0 -9 6 -22 14 -29 10 -9 15 -9 15 -1 0 6 -4 11 -9 11 -5
0 -12 8 -14 18 -4 14 -5 14 -6 1z"/>
<path d="M1066 1546 c10 -8 21 -12 24 -10 5 6 -21 24 -34 24 -6 0 -1 -6 10
-14z"/>
<path d="M1250 1539 c0 -6 -9 -22 -20 -36 -11 -14 -17 -29 -14 -34 3 -5 -1 -9
-8 -9 -7 0 -4 -6 7 -12 19 -11 19 -11 0 -19 -17 -6 -16 -8 8 -8 15 -1 27 -6
27 -12 0 -7 -10 -9 -25 -5 -14 4 -25 2 -25 -4 0 -5 9 -10 21 -10 11 0 18 -4
14 -10 -3 -5 -13 -6 -23 -3 -10 4 -14 2 -9 -3 5 -5 19 -9 31 -9 17 -1 22 4 18
17 -2 10 0 18 6 18 6 0 12 -8 14 -17 2 -9 14 -17 27 -18 20 -2 16 5 -29 45
-37 33 -49 49 -39 53 9 3 10 6 2 6 -7 1 -10 8 -6 17 5 13 8 13 15 2 6 -9 8 -8
6 7 -2 11 2 19 8 18 7 -1 10 6 7 17 -6 22 -13 27 -13 9z"/>
<path d="M1056 1525 c4 -8 11 -15 16 -15 6 0 5 6 -2 15 -7 8 -14 15 -16 15 -2
0 -1 -7 2 -15z"/>
<path d="M1136 1523 c-6 -14 -5 -15 5 -6 7 7 10 15 7 18 -3 3 -9 -2 -12 -12z"/>
<path d="M1290 1514 c0 -1 8 -8 17 -15 11 -10 14 -10 9 -1 -5 8 -1 11 13 9 33
-5 34 -14 2 -28 -29 -13 -29 -14 -10 -27 11 -8 23 -11 26 -8 4 3 1 6 -5 6 -7
0 -12 5 -12 11 0 16 43 -1 58 -22 7 -11 19 -19 25 -18 9 0 8 2 -1 6 -7 2 -17
14 -23 25 -10 18 -9 20 5 15 26 -10 18 9 -10 21 -14 7 -23 16 -20 20 2 4 -13
8 -35 8 -21 0 -39 -1 -39 -2z m85 -34 c3 -5 -1 -10 -10 -10 -9 0 -13 5 -10 10
3 6 8 10 10 10 2 0 7 -4 10 -10z"/>
<path d="M1403 1496 c14 -12 27 -28 30 -36 3 -8 5 1 4 21 -2 32 -5 36 -30 36
l-28 0 24 -21z"/>
<path d="M1077 1477 c-7 -20 4 -32 33 -35 18 -1 21 1 11 7 -7 5 -10 14 -6 20
5 8 13 5 26 -10 10 -12 19 -17 19 -11 0 7 7 9 17 5 15 -6 16 -5 3 9 -8 9 -19
14 -23 11 -4 -3 -14 0 -21 6 -11 9 -18 8 -29 -4 -20 -19 -28 -19 -21 0 4 8 4
15 1 15 -3 0 -7 -6 -10 -13z"/>
<path d="M2500 1450 c0 -5 5 -10 10 -10 6 0 10 5 10 10 0 6 -4 10 -10 10 -5 0
-10 -4 -10 -10z"/>
<path d="M1306 1437 c3 -10 9 -15 12 -12 3 3 0 11 -7 18 -10 9 -11 8 -5 -6z"/>
<path d="M1520 1426 c0 -7 -12 -21 -26 -31 -14 -9 -23 -22 -21 -29 4 -9 -3
-12 -19 -10 -14 1 -22 -2 -18 -8 3 -5 -7 -23 -22 -39 -24 -25 -26 -31 -14 -39
8 -5 20 -9 25 -9 6 0 4 3 -2 6 -14 5 -18 33 -5 33 5 0 15 11 22 25 10 19 17
22 30 15 10 -5 21 -6 25 -2 4 4 6 -3 3 -15 -3 -12 0 -30 7 -40 11 -15 13 -14
10 15 -1 18 -8 38 -14 46 -9 11 -9 14 1 13 7 0 32 1 56 1 l42 2 0 40 0 40 -40
0 c-27 0 -40 -4 -40 -14z"/>
<path d="M1355 1410 c-3 -5 -1 -10 4 -10 6 0 11 5 11 10 0 6 -2 10 -4 10 -3 0
-8 -4 -11 -10z"/>
<path d="M1397 1388 c-7 -21 -7 -28 1 -27 4 1 6 6 4 11 -2 6 5 8 14 4 14 -5
15 -4 4 9 -15 18 -17 18 -23 3z"/>
<path d="M1366 1333 c-4 -11 -4 -27 0 -36 5 -14 10 -11 30 12 13 16 24 33 24
37 0 5 -7 1 -14 -9 -13 -17 -15 -17 -24 -1 -9 16 -10 16 -16 -3z m11 -25 c-3
-8 -6 -5 -6 6 -1 11 2 17 5 13 3 -3 4 -12 1 -19z"/>
<path d="M5738 1343 c7 -3 16 -2 19 1 4 3 -2 6 -13 5 -11 0 -14 -3 -6 -6z"/>
<path d="M4120 1310 c0 -5 5 -10 10 -10 6 0 10 5 10 10 0 6 -4 10 -10 10 -5 0
-10 -4 -10 -10z"/>
<path d="M980 1279 c0 -5 5 -7 10 -4 6 3 10 8 10 11 0 2 -4 4 -10 4 -5 0 -10
-5 -10 -11z"/>
<path d="M4408 1283 c7 -3 16 -2 19 1 4 3 -2 6 -13 5 -11 0 -14 -3 -6 -6z"/>
<path d="M1234 1265 c11 -8 25 -15 30 -15 6 0 2 7 -8 15 -11 8 -25 15 -30 15
-6 0 -2 -7 8 -15z"/>
<path d="M1305 1270 c3 -5 8 -10 11 -10 2 0 4 5 4 10 0 6 -5 10 -11 10 -5 0
-7 -4 -4 -10z"/>
<path d="M1336 1271 c-3 -5 0 -21 8 -36 14 -27 8 -62 -16 -89 -4 -6 -8 -19 -7
-30 0 -20 1 -20 9 2 5 12 14 22 20 22 13 0 3 -43 -11 -48 -4 -2 -4 -14 1 -27
6 -16 5 -25 -3 -29 -9 -3 -9 -5 1 -5 15 -1 16 -41 1 -41 -5 0 -7 -5 -3 -11 12
-20 25 17 20 58 -8 66 1 83 43 83 20 0 43 5 51 10 16 11 16 11 -50 13 -55 2
-64 24 -25 63 24 24 24 25 4 19 -14 -5 -19 -3 -15 3 3 6 2 13 -4 17 -5 3 -10
11 -10 16 0 6 5 7 12 3 7 -4 8 -3 4 4 -9 14 -23 15 -30 3z"/>
<path d="M1540 1270 c8 -5 22 -9 30 -9 10 0 8 3 -5 9 -27 12 -43 12 -25 0z"/>
<path d="M4170 1240 c0 -33 3 -40 20 -40 17 0 20 7 20 40 0 33 -3 40 -20 40
-17 0 -20 -7 -20 -40z"/>
<path d="M1315 1230 c3 -5 8 -10 11 -10 2 0 4 5 4 10 0 6 -5 10 -11 10 -5 0
-7 -4 -4 -10z"/>
<path d="M1418 1233 c7 -3 16 -2 19 1 4 3 -2 6 -13 5 -11 0 -14 -3 -6 -6z"/>
<path d="M1482 1223 c-13 -5 -7 -23 9 -23 6 0 7 5 3 12 -5 7 -2 9 8 6 8 -4 21
-3 27 2 14 8 -24 11 -47 3z"/>
<path d="M1451 1204 c0 -11 3 -14 6 -6 3 7 2 16 -1 19 -3 4 -6 -2 -5 -13z"/>
<path d="M1549 1208 c0 -7 -2 -24 -5 -38 -3 -16 -1 -20 4 -12 7 10 11 10 22
-3 7 -8 8 -15 3 -15 -5 0 -10 -7 -10 -15 0 -8 3 -13 5 -10 3 3 12 -1 21 -7 13
-10 14 -10 4 2 -14 15 -18 34 -5 27 4 -3 8 6 8 19 1 13 -3 24 -10 24 -6 0 -4
5 4 10 9 6 10 10 3 10 -6 0 -15 -4 -18 -10 -3 -5 -11 -10 -16 -10 -16 0 1 21
25 30 19 8 19 9 -6 9 -16 1 -28 -5 -29 -11z m36 -38 c3 -5 1 -10 -4 -10 -6 0
-11 5 -11 10 0 6 2 10 4 10 3 0 8 -4 11 -10z"/>
<path d="M3911 1184 c14 -17 61 -15 129 4 30 9 23 10 -54 11 -80 1 -87 -1 -75
-15z"/>
<path d="M1506 1156 c10 -8 21 -12 24 -10 5 6 -21 24 -34 24 -6 0 -1 -6 10
-14z"/>
<path d="M4000 1144 c0 -13 7 -15 31 -10 17 3 37 6 43 7 19 1 -27 18 -51 18
-15 1 -23 -5 -23 -15z"/>
<path d="M1047 1139 c7 -7 15 -10 18 -7 3 3 -2 9 -12 12 -14 6 -15 5 -6 -5z"/>
<path d="M1480 1140 c20 -13 33 -13 25 0 -3 6 -14 10 -23 10 -15 0 -15 -2 -2
-10z"/>
<path d="M1085 1130 c-3 -5 -1 -10 4 -10 6 0 11 5 11 10 0 6 -2 10 -4 10 -3 0
-8 -4 -11 -10z"/>
<path d="M2880 1130 c0 -5 5 -10 10 -10 6 0 10 5 10 10 0 6 -4 10 -10 10 -5 0
-10 -4 -10 -10z"/>
<path d="M3840 1130 c0 -5 5 -10 11 -10 5 0 7 5 4 10 -3 6 -8 10 -11 10 -2 0
-4 -4 -4 -10z"/>
<path d="M1451 1116 c-9 -11 -8 -14 5 -12 9 0 19 -5 21 -12 3 -6 -1 -10 -9 -9
-7 2 -10 2 -5 0 11 -7 9 -33 -3 -33 -5 0 -10 -4 -10 -10 0 -21 20 -9 26 15 3
14 10 25 14 25 5 0 3 11 -3 25 -14 29 -20 31 -36 11z"/>
<path d="M3810 1105 c0 -8 5 -15 10 -15 6 0 10 7 10 15 0 8 -4 15 -10 15 -5 0
-10 -7 -10 -15z"/>
<path d="M4010 1112 c0 -5 7 -17 15 -28 15 -19 15 -19 30 0 22 29 19 36 -15
36 -16 0 -30 -4 -30 -8z"/>
<path d="M1518 1093 c7 -3 16 -2 19 1 4 3 -2 6 -13 5 -11 0 -14 -3 -6 -6z"/>
<path d="M1556 1081 c-19 -20 -21 -32 -5 -28 6 1 12 -15 13 -35 3 -36 1 -38
-27 -38 -42 0 -26 -13 20 -16 24 -1 32 1 22 7 -9 6 -10 9 -2 9 9 0 10 7 3 26
-13 33 -13 37 3 27 6 -4 4 5 -5 19 -10 15 -14 29 -9 33 5 3 12 -1 14 -7 4 -9
6 -10 6 -1 2 21 -16 23 -33 4z"/>
<path d="M3850 1080 c0 -14 46 -60 60 -60 16 0 12 15 -11 44 -20 26 -49 35
-49 16z"/>
<path d="M1500 1070 c-8 -5 -11 -12 -8 -16 4 -3 14 1 23 10 18 17 9 21 -15 6z"/>
<path d="M3760 1060 c0 -11 7 -20 15 -20 8 0 15 6 15 14 0 8 -7 16 -15 20 -10
4 -15 -1 -15 -14z"/>
<path d="M1125 1050 c3 -4 -2 -13 -10 -20 -12 -10 -18 -10 -30 0 -9 7 -18 10
-21 7 -3 -3 9 -13 28 -23 18 -9 30 -13 26 -9 -8 8 14 35 24 29 4 -2 9 0 12 5
3 5 -3 11 -14 14 -11 3 -18 2 -15 -3z"/>
<path d="M2030 1050 c0 -5 5 -10 10 -10 6 0 10 5 10 10 0 6 -4 10 -10 10 -5 0
-10 -4 -10 -10z"/>
<path d="M1420 1002 c0 -26 6 -41 20 -50 11 -7 20 -17 20 -23 0 -5 -4 -8 -8
-5 -5 3 -6 -9 -3 -27 5 -32 6 -32 9 -4 4 32 5 32 38 11 24 -17 24 -17 14 10
-13 34 -13 39 1 31 6 -4 5 2 -3 14 -7 12 -14 17 -16 12 -5 -14 -32 -1 -32 15
0 8 -4 14 -10 14 -5 0 -9 3 -9 8 3 18 -2 32 -11 32 -5 0 -10 -17 -10 -38z m39
-35 c12 -15 12 -17 -3 -11 -9 3 -16 13 -16 22 0 8 1 13 3 11 1 -2 9 -12 16
-22z m33 -19 c-9 -9 -9 -15 1 -27 11 -14 10 -14 -6 -2 -13 10 -15 17 -6 27 6
8 14 14 17 14 3 0 1 -5 -6 -12z"/>
<path d="M1928 1033 c7 -3 16 -2 19 1 4 3 -2 6 -13 5 -11 0 -14 -3 -6 -6z"/>
<path d="M1208 1023 c7 -3 16 -2 19 1 4 3 -2 6 -13 5 -11 0 -14 -3 -6 -6z"/>
<path d="M1471 1021 c-9 -6 -10 -11 -2 -15 6 -4 11 -3 11 3 0 6 7 8 15 5 8 -4
15 -1 15 5 0 13 -20 14 -39 2z"/>
<path d="M1181 1004 c0 -11 3 -14 6 -6 3 7 2 16 -1 19 -3 4 -6 -2 -5 -13z"/>
<path d="M1246 1005 c4 -8 11 -15 16 -15 7 0 6 -5 -1 -14 -9 -11 -5 -13 28
-12 21 0 37 5 34 9 -2 4 -14 5 -26 1 -12 -3 -19 -3 -15 1 7 7 -21 45 -34 45
-4 0 -5 -7 -2 -15z"/>
<path d="M1325 1010 c-3 -5 -1 -10 4 -10 6 0 11 5 11 10 0 6 -2 10 -4 10 -3 0
-8 -4 -11 -10z"/>
<path d="M1988 1013 c-22 -5 -24 -23 -3 -23 8 0 15 -7 15 -16 0 -14 -8 -16
-42 -11 -24 3 -37 3 -30 0 7 -3 24 -16 37 -29 18 -18 35 -24 70 -24 41 0 45 2
45 24 0 13 -6 26 -12 29 -10 3 -10 7 -1 19 24 29 -21 46 -79 31z"/>
<path d="M4203 1013 c-24 -2 -43 -8 -43 -14 0 -5 -18 -9 -40 -9 -36 0 -40 -2
-40 -25 0 -22 4 -25 39 -25 22 0 43 5 46 10 3 6 20 10 36 10 17 0 37 6 45 14
15 15 20 47 7 44 -5 -1 -27 -3 -50 -5z"/>
<path d="M1147 990 c9 -11 19 -17 21 -15 6 6 -18 35 -29 35 -5 0 -1 -9 8 -20z"/>
<path d="M1205 1000 c-3 -6 1 -7 9 -4 18 7 21 14 7 14 -6 0 -13 -4 -16 -10z"/>
<path d="M3266 981 c-4 -7 -5 -15 -2 -18 9 -9 19 4 14 18 -4 11 -6 11 -12 0z"/>
<path d="M750 960 c0 -5 5 -10 10 -10 6 0 10 5 10 10 0 6 -4 10 -10 10 -5 0
-10 -4 -10 -10z"/>
<path d="M3314 945 c25 -19 46 -19 46 0 0 10 -10 15 -32 15 -31 -1 -32 -1 -14
-15z"/>
<path d="M3420 910 c0 -27 5 -50 10 -50 6 0 10 5 10 10 0 6 4 10 9 10 13 0 71
-56 71 -69 0 -6 10 -11 23 -11 13 0 29 -6 36 -12 11 -10 14 -10 18 0 3 7 22
12 44 12 28 0 39 4 39 15 0 11 11 15 40 15 22 0 40 5 40 10 0 6 -18 10 -40 10
-29 0 -40 4 -40 15 0 10 -10 15 -30 15 -28 0 -30 2 -30 40 0 22 -4 40 -10 40
-5 0 -10 -18 -10 -40 0 -22 -4 -40 -10 -40 -5 0 -10 5 -10 10 0 6 -11 10 -25
10 -14 0 -28 7 -31 15 -4 10 -20 15 -45 15 -28 0 -39 4 -39 15 0 8 -4 15 -10
15 -5 0 -10 -22 -10 -50z"/>
<path d="M3680 935 c0 -8 5 -15 10 -15 6 0 10 7 10 15 0 8 -4 15 -10 15 -5 0
-10 -7 -10 -15z"/>
<path d="M1366 871 c-4 -5 -2 -12 4 -16 15 -9 12 -28 -2 -19 -10 5 -10 4 -1
-6 10 -10 10 -17 1 -28 -10 -11 -7 -18 12 -32 l23 -18 -23 -7 c-15 -5 -26 -3
-28 4 -4 13 -22 5 -22 -11 0 -6 3 -9 6 -5 3 3 16 -5 29 -19 23 -25 46 -34 26
-10 -9 11 -8 18 4 30 18 17 80 23 70 6 -3 -5 2 -10 11 -10 15 0 14 4 -6 25
-24 26 -36 33 -25 15 9 -15 -27 -12 -48 4 -19 15 -18 57 3 64 8 3 10 0 5 -8
-6 -9 -4 -11 4 -6 7 5 10 15 7 25 -5 14 -4 13 8 -1 7 -10 22 -18 32 -17 16 0
15 2 -4 10 -15 5 -21 13 -16 21 4 7 4 10 -1 6 -4 -4 -15 -2 -23 5 -10 8 -13 8
-9 1 4 -7 0 -15 -9 -18 -8 -3 -12 -2 -9 3 3 5 1 12 -4 15 -5 4 -12 2 -15 -3z"/>
<path d="M1570 870 c0 -5 7 -7 15 -4 8 4 15 8 15 10 0 2 -7 4 -15 4 -8 0 -15
-4 -15 -10z"/>
<path d="M1680 840 c0 -22 5 -40 10 -40 6 0 10 18 10 40 0 22 -4 40 -10 40 -5
0 -10 -18 -10 -40z"/>
<path d="M1016 844 c-3 -9 -4 -20 0 -25 3 -5 0 -9 -6 -9 -6 0 -8 -4 -5 -10 12
-19 20 -10 21 25 1 39 -1 43 -10 19z"/>
<path d="M1480 828 c0 -4 -8 -8 -17 -9 -14 0 -15 -2 -3 -6 8 -3 19 -11 23 -17
6 -7 7 -4 3 7 -4 12 -2 17 6 14 7 -2 12 -11 10 -18 -2 -8 0 -11 4 -6 15 15 10
43 -8 43 -10 0 -18 -4 -18 -8z"/>
<path d="M910 800 c0 -5 5 -10 11 -10 5 0 7 5 4 10 -3 6 -8 10 -11 10 -2 0 -4
-4 -4 -10z"/>
<path d="M1390 801 c0 -5 7 -12 16 -15 24 -9 27 -7 10 9 -17 17 -26 19 -26 6z"/>
<path d="M1293 779 c11 -18 12 -18 19 -1 6 16 7 16 7 -1 1 -10 5 -16 11 -12
16 10 0 33 -25 33 -21 0 -22 -3 -12 -19z"/>
<path d="M1340 794 c0 -6 7 -19 15 -30 8 -10 14 -14 14 -9 0 6 -6 19 -14 29
-8 11 -15 15 -15 10z"/>
<path d="M1580 760 c0 -22 5 -40 10 -40 6 0 10 18 10 40 0 22 -4 40 -10 40 -5
0 -10 -18 -10 -40z"/>
<path d="M1492 771 c-10 -6 -10 -10 3 -21 8 -7 19 -10 22 -6 4 4 1 11 -6 15
-11 7 -11 10 0 14 8 3 10 6 4 6 -5 0 -16 -3 -23 -8z"/>
<path d="M3600 765 c0 -11 11 -15 40 -15 29 0 40 4 40 15 0 11 -11 15 -40 15
-29 0 -40 -4 -40 -15z"/>
<path d="M1291 734 c0 -11 3 -14 6 -6 3 7 2 16 -1 19 -3 4 -6 -2 -5 -13z"/>
<path d="M1760 730 c0 -5 7 -10 16 -10 8 0 12 5 9 10 -3 6 -10 10 -16 10 -5 0
-9 -4 -9 -10z"/>
<path d="M1985 704 c-17 -13 -18 -16 -5 -24 28 -19 -11 -30 -77 -23 l-63 6 0
-52 0 -51 40 0 c25 0 40 -5 40 -12 1 -7 15 -22 33 -33 29 -18 31 -24 28 -67
-1 -30 2 -48 8 -48 6 0 11 18 11 39 0 32 6 44 31 65 17 14 35 26 40 26 5 0 9
6 9 14 0 8 6 16 13 19 10 4 10 7 0 18 -11 11 -13 10 -13 -4 0 -9 -7 -17 -15
-17 -12 0 -15 16 -15 80 0 76 -1 80 -22 80 -13 0 -32 -7 -43 -16z"/>
<path d="M4067 624 c-9 -9 12 -34 29 -34 8 0 14 5 14 10 0 6 -6 10 -14 10 -8
0 -16 5 -18 11 -2 5 -7 7 -11 3z"/>
<path d="M1665 570 c-3 -5 -1 -10 4 -10 6 0 11 5 11 10 0 6 -2 10 -4 10 -3 0
-8 -4 -11 -10z"/>
<path d="M2298 354 c-3 -42 10 -74 20 -46 2 7 24 12 53 12 l49 0 0 40 c0 22
-4 40 -10 40 -5 0 -10 -7 -10 -15 0 -11 -11 -15 -40 -15 -29 0 -40 4 -40 15 0
8 -4 15 -9 15 -5 0 -11 -21 -13 -46z"/>
<path d="M2560 330 c0 -5 18 -10 40 -10 22 0 40 5 40 10 0 6 -18 10 -40 10
-22 0 -40 -4 -40 -10z"/>
<path d="M2793 280 c0 -25 2 -35 4 -22 2 12 2 32 0 45 -2 12 -4 2 -4 -23z"/>
<path d="M2300 200 c0 -22 5 -40 10 -40 6 0 10 18 10 40 0 22 -4 40 -10 40 -5
0 -10 -18 -10 -40z"/>
<path d="M2780 190 c-13 -8 -12 -10 3 -10 9 0 17 5 17 10 0 12 -1 12 -20 0z"/>
<path d="M3120 176 c0 -9 5 -16 10 -16 6 0 10 4 10 9 0 6 -4 13 -10 16 -5 3
-10 -1 -10 -9z"/>
</g>
</svg>
